<?xml version="1.0" encoding="UTF-8"?>
<!DOCTYPE svg PUBLIC "-//W3C//DTD SVG 1.1//EN" "http://www.w3.org/Graphics/SVG/1.1/DTD/svg11.dtd">
<!-- Creator: CorelDRAW 2020 (64-Bit) -->
<svg xmlns="http://www.w3.org/2000/svg" xml:space="preserve" width="512px" height="341px" version="1.1" style="shape-rendering:geometricPrecision; text-rendering:geometricPrecision; image-rendering:optimizeQuality; fill-rule:evenodd; clip-rule:evenodd"
viewBox="0 0 512 341"
 xmlns:xlink="http://www.w3.org/1999/xlink"
 xmlns:xodm="http://www.corel.com/coreldraw/odm/2003">
 <defs>
  <style type="text/css">
   <![CDATA[
    .fil16 {fill:#10332C}
    .fil0 {fill:#14121B}
    .fil5 {fill:#1A6B53}
    .fil6 {fill:#282528}
    .fil9 {fill:#2C2447}
    .fil24 {fill:#30130B}
    .fil8 {fill:#375871}
    .fil22 {fill:#4E5767}
    .fil14 {fill:#504538}
    .fil10 {fill:#574979}
    .fil20 {fill:#683628}
    .fil3 {fill:#689DC3}
    .fil1 {fill:#725B8C}
    .fil7 {fill:#78463A}
    .fil11 {fill:#791605}
    .fil12 {fill:#896866}
    .fil21 {fill:#965956}
    .fil13 {fill:#9A7674}
    .fil17 {fill:#A76858}
    .fil18 {fill:#AB8882}
    .fil26 {fill:#B1500D}
    .fil19 {fill:#B2A4AD}
    .fil2 {fill:#BAB5D4}
    .fil27 {fill:#CE5509}
    .fil15 {fill:#D36A07}
    .fil4 {fill:#D5C9DB}
    .fil23 {fill:#EB7205}
    .fil25 {fill:#EB9D09}
   ]]>
  </style>
   <clipPath id="id0">
    <rect width="512" height="341"/>
   </clipPath>
 </defs>
 <g id="Capa_x0020_1">
  <metadata id="CorelCorpID_0Corel-Layer"/>
  <g style="clip-path:url(#id0)">
   <image x="0" y="0" width="512" height="341" xlink:href="banner-1_Images\banner-1_ImgID1.png"/>
  </g>
  <path class="fil0" d="M87.879 135.471l-2.37 2.664c-0.165,0.153 -0.365,0.352 -0.532,0.487 -2.313,1.871 -6.317,1.754 -8.415,3.378l6.626 3.06 1.807 5.935c-9.353,-0.231 -4.644,1.95 -8.046,-4.184 -0.612,-1.102 1.445,-4.376 -4.721,-1.055 -0.271,0.146 -0.603,0.399 -0.829,0.533l-3.017 -6.115c-0.853,2.33 -0.073,1.354 -0.73,3.382l-1.652 3.322c-0.6,-1.758 0.057,-0.345 -0.258,-4.315 -1.789,2.671 0.592,2.334 -3.975,0.967 -0.226,-0.068 -0.51,-0.169 -0.751,-0.248 -1.108,-0.362 -1.278,-0.274 -2.441,-0.811 -4.098,-1.893 -0.755,1.008 -3.302,-3.071l-1.756 -3.131c-0.091,-0.488 -0.332,-0.564 -0.512,-0.837 0,4.336 -0.563,6.157 -0.998,10.395 -0.742,7.226 0.806,7.691 0.823,7.637 0.047,-0.152 0.265,0.441 0.396,0.662 2.515,1.517 7.026,-0.809 8.222,-0.987l3.53 0.965c0.183,0.095 0.447,0.265 0.629,0.362 0.18,0.097 0.455,0.256 0.629,0.349l2.422 1.185c-0.805,1.772 -5.249,3.509 -7.468,4.199 -0.033,0.01 -2.328,0.422 -3.257,0.696 0.228,0.146 0.578,0.241 0.753,0.301 0.176,0.06 0.543,0.217 0.759,0.285 0.215,0.067 0.529,0.188 0.766,0.252l7.612 0.267 -2.844 5.031c-0.097,0.139 -0.297,0.361 -0.387,0.491 -1.59,2.301 -1.344,3.356 -1.713,6.36 2.375,-3.921 2.434,-0.089 4.5,-0.602 0.474,-0.927 0.339,-0.211 0.935,-2.455 0.013,-0.05 0.216,-2.147 0.238,-2.435 -2.383,2.742 -0.556,2.872 -3.164,1.509l3.544 -5.138c0.08,0 0.354,0.007 0.431,-0.002l2.722 -1.285c0.081,-0.283 0.433,-0.261 0.676,-0.278l0.493 2.755c-0.068,2.282 0.341,-0.223 -0.56,2.53 -2.853,8.723 -2.764,4.645 1.912,10.512 4.106,0.196 3.794,-0.749 4.04,-1.536 0.119,-0.38 0.251,-0.532 0.416,-0.775 -1.228,5.2 -1.081,2.95 3.329,5.748 3.81,2.416 4.173,2.951 3.005,8.595l-13.764 -5.299 0.373 7.114c6.819,-1.783 3.744,-3.668 8.688,-1.84l-1.693 8.656c-6.043,-0.988 -16.383,-6.482 -14.925,0.916 0.616,3.123 -0.086,-0.052 2.899,2.656l3.047 2.434c1.973,1.493 2.755,2.636 2.413,5.087 -0.702,5.046 2.564,0.38 -1.439,2.251 8.834,4.932 6.147,4.035 7,7.995 -4.485,-0.931 -8.223,-2.653 -11.777,-4.952l-12.977 -10.198c-0.821,-0.675 -1.653,-1.467 -2.125,-1.985l-5.214 -5.747c-0.66,-0.935 -1.919,-3.907 -2.306,-4.845 -2.037,2.5 -2.557,-3.718 -1.392,5.12 0.245,1.857 6.621,15.013 7.429,31.612 -6.134,4.903 -6.895,3.294 -10.344,-2.422 -6.123,-10.147 -6.829,-12.281 -9.458,-24.497 -0.752,-3.496 -2.644,-9.764 -2.677,-13.837 -0.997,1.068 -0.398,-0.148 -1.795,2.279l-4.526 13.38c-1.203,3.972 -0.555,1.578 -2.154,4.908 -1.178,2.453 -1.024,3.513 -1.342,4.54 -0.788,2.551 -2.006,2.517 -4.27,5.743l-4.586 6.602c-0.775,-13.353 6.965,-24.069 9.792,-35.701 -2.234,1.479 -0.297,0.133 -1.86,2.256 -1.046,1.419 -1.225,1.658 -2.089,2.901 -7.761,11.179 -1.67,3.72 -9.661,10.515 -2.361,2.008 -1.665,2.456 -4.663,4.277l0 130.056 227.047 0c-1.392,-1.282 0.119,-0.461 -1.91,-1.41 -1.441,-0.675 -0.377,-0.45 -2.322,-0.776l-18.389 0.746c-0.025,-1.853 -0.015,-6.048 -0.16,-7.647 -0.404,-4.441 -1.402,-2.476 -0.696,-5.831 0.587,-2.788 2.697,-43.215 4.79,-45.25 0.993,-8.902 0.726,-23.651 -1.9,-31.835 -3.644,0.888 -7.548,2.087 -10.511,3.927 -4.768,2.961 -5.437,2.542 -11.348,2.997 -1.729,0.525 -34.578,0.28 -40.447,0.117 -2.974,1.543 -5.575,1.045 -9.661,0.944 6.767,11.035 4.851,10.498 7.971,25.662l-6.04 -0.644 1.387 10.303c-4.037,-0.047 -4.962,-0.515 -8.483,-1.182 -3.26,-0.618 -0.371,0.073 -4.054,-1.439l-5.786 -1.682c1.678,1.249 -7.644,8.67 -6.906,2.475 0.666,-5.6 6.639,-5.62 6.651,-5.624 -7.481,-4.402 -0.155,-9.282 -6.509,-12.37l0.825 -1.695c0.085,-0.188 0.277,-0.561 0.372,-0.785 0.389,-0.911 0.399,-0.505 0.784,-2.026 0.004,-0.016 0.215,-3.903 0.218,-4.746 -3.922,1.79 -1.484,2.86 -4.128,-0.436 -1.934,-6.259 -3.25,-15.394 -2.902,-21.925 0.602,-11.329 -7.633,-5.951 -2.435,-18.84 4.033,-0.241 10.716,2.48 7.574,-2.839 -2.202,-3.73 -5.164,-1.625 -7.513,-6.951 -1.668,-3.782 -1.506,-8.181 -2.156,-11.413 -0.869,-4.318 -5.204,-1.47 0.203,-18.337l0.601 -1.446c2.217,-6.077 0.105,-7.064 -0.443,-13.021 -0.839,-9.128 2.843,-21.286 2.102,-26.476 -1.718,-6.366 -2.986,3.972 -2.964,-8.497l-3.336 0.827c-0.685,3.648 -0.08,0.385 -1.537,1.951 -3.375,3.627 -1.717,2.724 -2.63,9.6 -5.729,1.244 -7.125,-4.813 -7.48,-9.955z"/>
  <path class="fil1" d="M82.226 64.186c1.848,3.427 0.833,2.846 2.232,7.091 1.016,3.086 1.997,5.024 2.547,8.108l8.918 2.975c-2.882,2.289 6.007,5.355 -8.588,-1.573 -3.566,-1.693 -6.299,-2.434 -10.178,-2.871 3.171,2.974 16.851,5.754 23.151,10.607 3.759,2.896 2.657,3.272 7.155,5.128 1.612,-0.492 0.057,-2.599 -0.378,-3.392l9.806 -5.04 -0.101 2.367c0.022,0.102 0.088,0.449 0.21,0.637l14.798 -1.178c-0.002,0.232 -1.386,1.257 -1.482,1.345 -0.161,0.149 -0.441,0.41 -0.607,0.569l11.592 3.238c0.041,-4.382 -1.531,-6.542 0.056,-10.713 1.241,-3.264 0.881,0.321 1.48,-5.478 0.292,-2.829 0.09,-3.717 0.784,-6.262 2.31,-8.481 15.556,-18.104 25.765,-11.088 7.823,5.375 9.106,9.788 10.541,17.325 1.609,8.452 1.617,-0.781 1.85,13.014l0.187 9.004c2.305,0.802 -1.764,1.166 0.877,-0.39 2.105,-1.24 -1.827,-0.226 1.599,-1.107l0.636 7.534 2.505 -8.253c1.261,3.899 0.135,6.784 2.933,9.662 1.033,-2.98 5.689,-14.775 4.525,-16.689l0.402 17.968c10.795,-2.59 7.03,-4.696 11.544,-11.74l3.697 -3.411c0.145,-0.099 0.469,-0.259 0.679,-0.423l2.447 4.09c0.156,0.152 0.393,0.356 0.554,0.494 2.711,2.318 2.633,1.393 3.634,1.452 5.93,0.35 7.473,3.052 7.144,-4.74 -12.337,0.764 -10.885,0.723 -11.043,-11.437 -0.101,-7.761 -0.326,-15.531 -0.334,-23.278 4.088,-0.146 7.151,-0.806 10.889,0.462l0.236 10.313c16.351,-9.502 17.375,5.063 16.021,8.606l5.68 0.06 -2.943 -0.829 -0.2 -10.742 11.483 0.038c-0.045,2.821 0,5.05 0.028,7.417l-0.541 6.204c-0.038,0.151 -0.13,0.46 -0.24,0.671 1.721,1.277 1.708,1.571 3.412,3.653 4.13,-4.899 2.628,-6.756 2.223,-17.981l11.328 -0.332c-0.071,6.899 1.125,21.03 -0.372,26.46l-9.885 0.103 1.113 6.529 -0.614 9.576c-0.014,3.818 0.728,4.947 1.323,8.259 0.655,3.65 0.098,2.31 0.065,3.137 -0.1,2.503 -0.933,1.163 0.35,3.079 5.52,-1.659 4.618,4.435 12.987,5.758 3.078,0.487 6.722,0.049 8.815,1.241 3.81,2.168 0.684,3.649 7.04,4.273 15.426,-9.949 1.826,-12.145 8.404,-39.416 -4.761,2.971 -5.507,4.46 -12.368,4.681 -4.855,0.156 -9.861,-0.526 -13.709,-2.951 0.618,-3.194 0.783,-3.234 2.712,-6.151 6.959,1.251 13.258,5.17 14.916,-4.087 -11.171,7.035 -21.401,-0.456 -18.193,-12.974 3.283,-12.814 15.444,-6.573 16.928,-6.691 0.124,-0.01 1.255,-0.406 1.796,-0.535 3.305,-0.79 5.807,-0.652 9.39,-0.512l-0.094 18.443c1.778,-1.935 5.164,-9.601 9.974,-11.576 8.485,-3.485 14.433,1.98 21.347,8.058 5.139,4.518 6.9,22.247 9.3,28.629 1.904,5.063 3.61,5.188 6.754,8.273 4.354,4.272 2.223,4.839 10.882,5.231l2.173 3.141c1.942,-28.842 1.628,-14.422 8.404,-28.073 1.993,-4.017 1.499,-3.777 4.423,-6.763l2.566 1.582c-2.501,-6.207 -9.302,-3.961 -14.699,-22.278 -0.093,-0.315 -0.395,-1.8 -0.57,-2.346l-1.531 -3.234c-0.09,-0.181 -0.247,-0.445 -0.329,-0.621 -0.175,-0.376 -0.45,-0.448 -0.735,-2.04 -1.571,-8.526 -5.367,-25.001 4.458,-26.245l1.528 -6.467c2.553,-4.609 -0.338,-2.533 4.946,-2.013l-2.703 -4.727c-3.869,2.82 -1.554,2.06 -8.092,2.112 0.008,-10.505 0.185,-6.812 -5.627,-11.338 -3.284,-2.557 -1.683,1.423 -2.389,-3.798l3.217 -1.167c1.161,-0.195 3.353,-0.092 4.614,-0.1l-0.045 -7.733 -239.2 0 -0.372 18.07c-4.867,0.146 -4.784,0.536 -8.884,-1.052 -1.048,-0.405 0.907,-0.41 -1.857,-0.723 -0.638,2.75 -1.152,2.843 -1.924,4.941 -4.506,12.235 -3.046,4.561 -3.692,4.244 -1.71,-0.839 2.84,-1.393 -4.29,-1.09 -0.05,6.532 0.89,8.241 0.726,14.61 -5.023,3.37 0.878,0.353 -3.101,1.123 -0.772,0.149 -1.979,0.078 -2.798,0.087 -1.476,6.155 -3.954,7.254 -4.052,15.948 -4.083,-1.33 -0.361,0.466 -4.013,-2.859l1.013 3.911c-1.39,0.655 -3.448,1.375 -4.711,2.137l-0.228 4.839z"/>
  <path class="fil2" d="M405.703 76.484c-6.367,9.316 -11.754,11.309 -12.259,16.526 -0.571,5.912 -4.354,12.94 -8.444,18.135l-1.279 -3.117c-0.183,-0.627 -0.398,-1.844 -0.53,-2.532 -0.237,-1.24 -0.55,-3.943 -0.995,-6.065 -0.824,-3.928 -2.713,-5.233 -4.63,-7.436l-2.566 -1.582c-2.924,2.986 -2.43,2.746 -4.423,6.763 -6.776,13.651 -6.462,-0.769 -8.404,28.073 -0.152,6.771 -0.558,15.78 0.584,22.342 1.015,5.833 2.316,12.805 2.355,19.387 0.091,15.024 -1.473,27.885 -0.441,42.875 2.588,6.878 0.375,14.622 0.447,23.322l2.396 0.917c7.885,0.654 7.405,1.923 12.337,2.659 11.329,1.69 32.646,0.235 44.046,-0.141l11.846 -2.363c7.154,-1.857 8.132,-2.27 16.124,-2.135 -0.738,-6.462 0.283,-5.017 0.622,-10.112 2.191,-0.888 1.66,-0.169 1.844,0.533l0.258 -2.639c-0.134,-5.013 -1.29,-6.096 -0.815,-12.89l-1.176 -43.004c0.228,-0.243 0.688,-0.667 0.739,-0.778l0.336 -0.74c0.011,-0.071 0.002,-0.328 0.004,-0.411l-0.27 -1.806c-0.034,-0.484 -0.054,-2.492 -0.049,-2.842 12.76,-0.044 2.451,0.618 10.226,4.017 -2.142,12.635 -0.522,4.704 0.074,10.541 0.625,6.115 -1.415,3.65 1.504,11.023 2.122,5.361 -2.347,5.295 -1.547,25.468 7.055,-1.825 15.971,-2.612 21.162,1.484l3.124 0.039c-0.114,-4.934 -0.787,-9.403 -1.074,-14.112 -0.373,-6.103 1.846,-6.378 3.413,-10.535 2.696,-7.153 0.607,-7.634 -0.953,-11.868 -1.928,-5.231 0.36,-6.577 1.998,-10.48l-13.682 -26.9 -4.482 -8.704 -7.01 -13.831c-2.517,-1.473 -1.256,-0.221 -1.718,-3.114 -2.276,-1.87 -5.061,-8.865 -9.291,-15.565 -7.392,-11.71 -4.26,-10.324 -28.228,-12.758l-10.21 -1.599 -4.666 -8.916c-3.183,1.332 -1.158,0.194 -3.873,2.569 -1.399,1.224 -1.255,1.336 -2.424,2.302z"/>
  <path class="fil3" d="M263.119 122.414c0.809,11.744 -3.209,12.83 -1.924,23.852 0.648,6.26 -0.266,12.536 -2.968,17.071 0.334,-4.382 -5.217,-10.172 -7.171,-13.321l-9.165 -13.502c-2.189,-2.924 -1.858,-3.761 -2.59,-8.248l-7.948 -1.73c-1.692,4.232 -0.565,2.794 -4.737,5.189 -7.897,4.533 -6.017,4.631 -14.43,5.986 -2.948,0.474 -4.7,1.576 -6.694,0.229 -0.391,2.671 -2.545,2.598 -2.836,8.221 -0.209,4.055 1.243,4.258 -1.246,8.275l0.565 4.787c1.99,7.314 -1.014,13.301 -0.012,20.654 1.207,8.859 2.756,13.236 1.765,23.142 -0.002,-4.474 -0.657,-10.794 1.008,-14.019 1.118,-0.968 -0.282,-1.035 2.798,1.285 1.62,1.221 2.649,1.964 3.953,3.237 1.836,1.794 1.393,1.995 3.378,3.539 1.82,1.416 1.875,0.648 4.112,2.939 0.531,7.632 1.101,48.034 -0.189,51.005 3.963,1.503 0.29,-1.122 3.84,2.367 1.966,1.934 0.797,3.418 8.857,6.23 5.101,1.78 12.972,1.74 18.964,0.706 5.61,-0.968 10.147,-3.371 16.566,-3.461 9.631,-0.134 9.761,-2.455 12.72,-7.864 1.925,-0.72 2.337,-0.912 3.525,-1.696 1,-7.442 -1.571,-13.971 7.563,-11.93l-0.379 -3.149c-4.901,0.064 -1.653,-0.001 -2.716,-2.147 -1.504,-3.037 0.225,-9.336 -0.341,-13.526 -0.863,-6.39 -0.887,-13.262 -0.52,-20.14 -0.649,-6.403 -0.127,-12.651 0.507,-18.845 0.821,-8.012 -1.224,-10.705 3.185,-15.898 -0.659,-4.049 -0.23,2.663 -0.965,-1.332l-0.015 -0.849c0.972,-8.792 0.935,-22.918 2.382,-25.785 -6.356,-0.624 -3.23,-2.105 -7.04,-4.273 -2.093,-1.192 -5.737,-0.754 -8.815,-1.241 -8.369,-1.323 -7.467,-7.417 -12.987,-5.758z"/>
  <path class="fil4" d="M139.843 119.005c-1.193,0.751 -5.397,-1.198 -1.231,5.258 1.258,1.949 1.723,1.319 2.047,1.394 3.155,0.73 0.529,-0.431 0.346,-0.652 1.016,4.019 0.416,3.994 2.693,7.319 2.255,3.293 0.496,2.401 3.297,2.681 -6.675,-9.968 -12.29,5.566 -12.99,10.99 3.444,-1.039 8.567,-4.226 9.287,-6 -5.834,1.648 -16.539,12.685 -1.292,13 -3.702,-4.831 -7.487,13.309 5.641,10.815 5.443,-1.034 1.062,0.257 1.364,-0.815 -0.092,2.184 -1.524,5.374 0,10 7.904,-2.847 5.538,-5.372 10.824,-7.109 -2.203,6.975 -4.917,1.143 -10.649,12.448 -1.917,3.781 -1.871,1.44 -5.389,6.516 -6.833,9.859 -12.513,14.694 -10.796,22.219 2.822,1.465 1.939,0.178 5.521,1.35l4.949 2.287c0.113,-0.201 0.455,0.275 0.662,0.442 -5.933,7.104 -4.689,0.176 -10.483,1.784l0.542 10.945c7.091,-2.306 16.541,-16.571 13.832,2.46 -19.354,-3.338 -11.692,9.581 -10.993,15.774 0.923,8.191 3.701,8.367 4.737,14.059l2.392 -0.132c5.869,0.163 38.718,0.408 40.447,-0.117l1.512 -1.127c1.857,-0.722 1.039,-0.485 2.982,-0.789l-3.84 -1.494c0.007,-0.004 2.718,0.407 1.543,-4.892 -0.689,-3.11 -2.976,-11.22 -0.786,-16.794l1.141 -2.109c0.095,-0.17 0.335,-0.457 0.441,-0.716 -0.272,-0.16 -0.7,-0.665 -0.847,-0.421 -0.156,0.258 -0.983,-0.509 -1.585,-0.783 -6.452,-2.935 0.091,0.769 -5.111,-0.828 3.488,-5.063 1.074,2.421 4.998,-9.039 4.025,-11.757 3.606,5.67 6.386,-23.619 0.841,-8.869 1.381,-7.836 4.323,-10.31l0.407 -18.208c4.063,2.265 -1.57,4.329 2.642,2.208l0.4 -6.875c3.345,-0.698 0.715,0.217 2.768,-0.902l-0.565 -4.787c-0.132,-0.55 -0.575,-3.766 -0.579,-3.777l-3.017 -8.224c-0.264,-4.405 0.919,0.223 1.279,-4.313l-2.441 -13.322c-1.323,3.315 -0.053,3.109 -0.122,7.301l-2.53 4.522c-5.304,-2.495 4.067,3.288 -1.331,-1.125 -2.417,-1.977 0.203,-1.946 -3.607,-2.007 -1.571,-0.025 -3.369,1.199 -4.411,2.163 -2.763,2.559 -4.56,5.774 -5.97,9.187 -1.974,-2.138 -1.136,-0.313 -1.745,-3.92l-1.627 4.18c-0.05,-0.333 -0.399,-2.185 -0.529,-2.549 -0.077,-0.219 -0.284,-0.569 -0.358,-0.75l-0.976 -1.385c-1.712,-10.732 -11.378,-15.988 -12.625,-18.122 -3.978,-6.809 1.315,-3.546 -7.058,-8.977 -3.208,-2.08 -6.773,-3.929 -8.491,-5.982l0.14 10.995c-4.9,-2.318 -0.565,0 -3.028,-2.702 -0.594,-0.651 -0.751,-0.938 -1.511,-1.763l-1.188 -1.087c1.423,4.171 2.002,3.17 2.566,7.221 -1.062,0.44 0.911,2.722 -2.408,-0.995z"/>
  <path class="fil5" d="M301.344 204.497c1.493,6.201 -1.972,11.645 -3.893,15.64 -2.104,4.376 -2.528,9.575 -4.4,15.68 2.301,-1.101 1.384,0.518 2.385,-3.562 0.257,0.252 0.498,0.359 0.625,0.879l2.249 2.677c0.477,0.397 6.646,0.75 6.685,13.194l8.906 3.223c-0.537,2.304 -1.855,3.422 -2.46,8.667 -0.441,3.826 0.377,5.083 -2.167,7.17 -2.853,2.341 -0.669,-2.783 -2.323,1.641 -2.679,7.165 1.616,-3.491 3.566,10.481l10.107 0.349c0.355,-3.916 1.204,-4.63 1.063,-7.29 -0.24,-4.51 -0.597,-2.871 -0.038,-7.666l-2.96 -13.429c2.636,0.04 5.326,0.259 7.608,-1.151 -2.931,-5.351 -2.19,-1.564 -6.432,-5 0.235,-8.652 6.251,-3.02 7.297,-11.882 4.942,2.814 2.153,-1.812 4.741,3.882 -0.121,0.056 -0.36,-0.177 -0.397,-0.048 -0.038,0.134 -0.356,-0.045 -0.411,-0.05l-3.186 0.098c2.229,6.097 -0.329,-2.724 2.386,2.713 0.077,0.156 0.188,0.441 0.259,0.618l0.859 3.155c1.288,3.614 1.595,2.737 2.258,4.123 3.438,7.19 -6.346,1.668 1.028,5.381 11.735,5.91 8.798,-1.162 13.301,-1.679l1.193 3.677c-2.085,1.628 -5.255,1.381 -9.062,3.148 0.17,5.287 1.419,8.288 0.986,12.73 -0.381,3.921 -2.608,9.177 -2.602,11.74 7.802,2.226 5.756,1.14 13.511,0.544l6.971 -1.203c4.159,-2.653 4.494,-2.901 10.949,-2.913 3.284,-2.464 1.171,-4.338 -0.242,-8.833 -1.331,-4.238 -2.138,-6.152 -2.946,-11.041 -1.102,-6.669 -0.372,-18.824 0.756,-26.068l-2.396 -0.917c-0.072,-8.7 2.141,-16.444 -0.447,-23.322 -1.492,-1.067 -0.571,-0.308 -1.817,-1.57 -1.171,-1.187 -0.35,-0.384 -1.455,-1.705 -4.674,-5.586 -3.287,-1.726 -8.668,-1.534 -1.305,0.047 0.233,0.355 -1.955,-0.549l-0.9 -0.451c-0.046,-0.186 -0.278,-0.198 -0.441,-0.216 6.982,-1.544 9.479,-6.04 7.269,-14.054 -6.06,-21.987 4.522,-15.436 -5.125,-32.221 -1.161,-2.019 -0.041,-0.938 -1.97,-3.16l-13.952 -8.406c-2.443,3.66 -5.724,11.888 -9.702,13.976 -2.165,-4.216 -3.558,-10.537 -5.386,-15.565 -2.328,-6.407 -3.375,-8.697 -5.981,-13.661 -1.348,5.359 -0.258,3.566 0.334,10.222 0.343,3.849 1.111,6.352 1.302,10.041 1.891,-1.222 -1.132,-1.122 -2.9,-1.623 0.011,1.255 0.289,3.393 0.295,4.031 0.001,0.207 -0.004,0.48 -0.011,0.665l-0.143 1.089c-0.027,0.235 -0.273,2.432 -0.108,4.238 -3.541,-1.966 -2.279,-0.695 -4.766,1.002 -1.724,1.176 -3.255,2.39 -4.696,3.598 -0.819,13.701 5.993,12.073 1.382,24.782 0.081,-6.141 -0.074,-11.976 -3.089,-15.607 -4.086,6.644 4.832,22.472 6.739,28.778 -1.519,-0.92 -3.473,-2.056 -4.853,-2.973 -2.185,4.354 1.057,-3.77 -0.282,1.648l-2.448 3.869z"/>
  <path class="fil6" d="M0 172.005c1.483,-1.793 2.727,-0.598 5.215,-3.495l1.785 -3.706c0.809,0.673 2.408,1.653 3.976,2.394 1.908,0.903 -2.423,1.394 3.032,0.882 3.491,-0.327 1.569,0.285 3.68,-1.641 -2.448,-2.704 -2.703,-1.879 -5.494,-4.652 -2.453,-2.439 -1.588,-2.872 -5.737,-3.528 0.009,-0.001 6.409,4.824 8.025,6.303 0.807,0.739 1.055,1.091 2.049,1.882 2.709,2.155 0.72,1.446 3.535,2.053 2.96,0.638 1.308,0.455 3.523,-0.289 0.431,-0.145 2.938,-1.829 3.25,-2.014 -5.992,-7.674 -1.972,1.273 -9.101,-4.074 -1.494,-1.12 -1.71,-1.33 -2.743,-2.115 2.94,2.925 1.864,0.121 2.708,-2.171 1.177,-3.196 0.899,-3.884 0.602,-7.036 -4.332,-0.175 -5.853,1.337 -8.477,0.202l8.624 -0.506c-0.154,-10.361 -2.505,-1.393 -0.452,-12.499 0.505,5.392 1.02,2.474 2.76,3 0.169,-0.337 0.33,-1.221 0.352,-1.075 0.048,0.329 1.381,-0.484 0.02,-3.843 -0.718,-1.772 -1.715,-1.782 -3.137,-2.077 0.468,-4.479 -0.362,0.569 1.234,-2.951 0.112,-0.247 0.488,-0.976 0.582,-1.239 2.042,-5.745 0.157,0.155 0.477,-2.013 0.614,-4.152 0.437,-4.555 -1.08,-8.22 5.638,0.5 2.669,-0.428 4.547,1.883 3.362,4.137 -1.323,0.76 3.25,3.54 -0.462,0.6 -1.347,0.278 -1.596,4.164l-0.034 1.418c-0.636,3.936 -2.026,4.773 1.539,14.201 2.325,6.151 0.787,-1.882 1.384,3.774 0.156,1.472 -1.522,2.806 -1.293,4.438 0.315,0.037 0.794,-0.328 0.949,-0.048 0.003,0.005 2.158,0.82 4.046,-2.513 4.879,6.788 4.513,10.278 7.995,10.561 0.073,0.194 -3.177,0.876 2.487,0.183 2.821,-0.346 2.559,-0.734 6.468,-0.683 -0.014,-2.32 0.052,-4.359 0.265,-4.652l3.249 -1.383c0.166,-0.067 0.499,-0.248 0.762,-0.334 -0.131,-0.221 -0.349,-0.814 -0.396,-0.662 -0.017,0.054 -1.565,-0.411 -0.823,-7.637 0.435,-4.238 0.998,-6.059 0.998,-10.395 0.18,0.273 0.421,0.349 0.512,0.837l1.756 3.131c2.547,4.079 -0.796,1.178 3.302,3.071 1.163,0.537 1.333,0.449 2.441,0.811 0.241,0.079 0.525,0.18 0.751,0.248 4.567,1.367 2.186,1.704 3.975,-0.967 0.315,3.97 -0.342,2.557 0.258,4.315l1.652 -3.322c0.657,-2.028 -0.123,-1.052 0.73,-3.382l3.017 6.115c0.226,-0.134 0.558,-0.387 0.829,-0.533 6.166,-3.321 4.109,-0.047 4.721,1.055 3.402,6.134 -1.307,3.953 8.046,4.184l-1.807 -5.935 -6.626 -3.06c2.098,-1.624 6.102,-1.507 8.415,-3.378 0.167,-0.135 0.367,-0.334 0.532,-0.487l2.37 -2.664 -0.166 -6.905 2.931 1.568c1.866,0.563 -0.162,0.79 1.693,-0.134 0.365,-3.02 0.706,-4.926 2.04,-7.093 -3.288,-1.965 -4.427,-4.821 -6.165,-7.334l-10.932 -12.881c-2.066,-2.672 -3.742,-3.859 -5.294,-6.806 4.514,2.309 7.254,6.131 10.662,8.66 -0.682,-4.109 -0.204,-3.302 -3.968,-6.138 5.094,-2.014 4.06,-1.989 7.508,-5.666 -8.602,-2.903 -2.593,-0.752 -10.292,0.676 -2.833,0.526 -4.134,0.436 -6.028,-1.076 -3.03,-2.419 -1.714,-1.106 -2.863,-4.889 7.166,-1.312 11.74,-2.294 17.739,2.789 1.29,1.092 0.85,0.829 1.984,1.927 0.145,0.141 0.347,0.356 0.495,0.496 2.886,2.738 5.592,5.742 9.847,5.868 3.829,0.114 0.781,-1.307 4.869,0.375 3.823,1.575 0.423,1.101 5.056,2.352l-11.995 5.339 -5.298 -2.849c7.274,2.532 2.362,-0.777 3.981,3.499l-6.599 0.883 6.683 9.832c0.131,0.181 0.483,0.867 0.581,0.696 0.101,-0.174 0.381,0.488 0.75,0.702l0.888 -8.405c-0.542,0.898 -2.882,-2.249 2.053,4.769 1.405,1.996 2.234,3.602 2.907,5.294 3.522,8.859 -0.756,12.087 -0.759,12.083 -0.107,-0.189 -0.467,0.494 -0.661,0.772l3.336 -0.827c-0.022,12.469 1.246,2.131 2.964,8.497 3.42,3.957 -0.57,2.049 4.174,2.695 1.402,-3.862 1.137,-9.325 0.971,-13.812 -1.192,-2.582 -0.903,-0.131 -0.811,-4.271 -2.278,1.835 -1.718,2.93 -2.825,4.82 -0.515,-3.424 -1.537,-5.313 -2.308,-8.336 -1.158,-4.542 0.321,-2.523 2.067,-3.641 -0.841,-4.645 -1.871,-6.532 -4.771,-10.374 -1.823,-2.414 -0.145,0.563 -2.179,-2.881 5.953,0.152 7.639,1.041 13.05,7.102 1.342,1.504 -0.493,-0.32 1.41,1.498 6.419,6.132 1.141,3.304 8.14,8.18l2.948 -1.4c1.686,2.677 2.838,5.1 6.731,6.487 -0.594,-5.315 -2.39,-4.101 -3.091,-6.981 -1.217,-5.003 -0.786,-1.29 0.337,-2.538l3.511 -3.093c-4.018,-6.389 -12.995,-9.898 -20.209,-11.531 12.638,-0.05 12.034,2.502 21.474,5.083 -1.827,-2.858 -3.731,-3.707 -7.95,-5.222 -3.635,-1.305 -6.555,-1.735 -10.495,-2.088 -4.466,-6.014 -3.231,-3.672 -8.537,-7.591 -4.498,-1.856 -3.396,-2.232 -7.155,-5.128 -6.3,-4.853 -19.98,-7.633 -23.151,-10.607 3.879,0.437 6.612,1.178 10.178,2.871 14.595,6.928 5.706,3.862 8.588,1.573l-8.918 -2.975c-7.185,-5.256 -27.206,-2.027 -35.069,3.615 0.208,5.48 1.831,5.139 3.396,9.609 -2.229,0.47 -4.911,1.664 -7.237,2.525 -3.147,1.165 -3.495,1.936 -6.151,3.819 -8.043,5.701 -3.384,4.337 -7.944,11.389 -5.486,-1.35 -2.507,-1.918 -5.855,-4.481 -0.702,-0.537 -4.809,-2.48 -6.08,-3.194 6.94,0.031 5.764,6.385 5.851,7.521l-8.651 -3.193c1.229,-0.25 2.022,-0.975 3.73,4l-5.792 3.243c-0.114,0.067 -0.343,0.258 -0.47,0.319 -0.382,0.183 -4.306,2.507 -5.568,-1.469 -1.098,-3.455 0.972,-1.133 1.064,-1.106 -5.563,-1.41 1.587,2.113 -4.915,-0.982 3.557,-11.545 -2.319,-91.559 -2.319,-111l-4.995 0 0 172.005z"/>
  <path class="fil7" d="M218.788 251.005c0.384,4.165 1.468,5.55 1.647,9.969 0.124,3.034 -0.708,6.478 -0.395,8.985 0.503,4.039 4.408,9.464 5.541,13.509 2.36,8.43 5.194,23.824 3.038,32.963 -6.502,0.38 -11.711,0.45 -17.161,-0.902l-2.309 -5.575c-1.907,-4.86 -1.191,-23.857 -0.789,-29.122 -2.093,2.035 -4.203,42.462 -4.79,45.25 -0.706,3.355 0.292,1.39 0.696,5.831 0.145,1.599 0.135,5.794 0.16,7.647l18.389 -0.746c1.945,0.326 0.881,0.101 2.322,0.776 2.029,0.949 0.518,0.128 1.91,1.41l56.303 0c0.179,-4.259 0.098,-18.594 0.65,-19.951l5.995 0.512c1.027,-2.486 -0.623,2.254 1,-3.556 -2.839,0.044 -7.319,0.902 -8.26,0.93l0.881 -3.665c-1.414,-2.592 -0.024,-10.078 1.295,-13.639 0.622,-1.679 1.803,-4.254 2.364,-6.262 0.928,-3.327 0.459,-4.834 2.037,-7.228 -0.429,-5.579 0.714,-5.871 1.531,-10.337 0.309,-1.685 0.316,-4.668 0.574,-5.685 1.006,-3.961 -0.914,-1.585 2.249,-3.209 -0.001,-0.001 -1.537,-1.711 -1.615,-1.808l-3.832 -4.337c-5.742,-4.936 -5.864,-1.079 -7.416,-4.727l-1.068 -9.055c-2.959,5.409 -3.089,7.73 -12.72,7.864 -6.419,0.09 -10.956,2.493 -16.566,3.461 -5.992,1.034 -13.863,1.074 -18.964,-0.706 -8.06,-2.812 -6.891,-4.296 -8.857,-6.23 -3.55,-3.489 0.123,-0.864 -3.84,-2.367z"/>
  <path class="fil8" d="M87.005 79.385c-0.55,-3.084 -1.531,-5.022 -2.547,-8.108 -1.399,-4.245 -0.384,-3.664 -2.232,-7.091 -3.701,-1.672 -0.861,0.218 -3.712,-3.788 -0.85,-1.195 -1.44,-2.118 -2.515,-3.416 -9.096,-10.982 -23.973,-0.047 -32.782,-6.025 1.328,-1.881 -0.088,-1.875 3.705,-2.202l3.085 0.189c4.78,-0.361 3.357,-1.169 5.975,-5.107 5.84,0.559 4.132,1.825 9.588,0.131 5.64,-1.753 2.949,0.736 7.014,2.351 6.161,2.449 6.486,-6.288 14.416,3.686 0.767,-6.805 -9.612,-14.138 -14.863,-17.194l-1.314 -0.728c-1.736,-1.093 -1.678,-0.167 -1.828,-1.649 -29.583,-2.422 -24.28,8.524 -27.113,-1.309 -0.026,-0.092 -0.774,-1.465 -0.887,-2.133 1.351,-0.587 9.075,-2.238 10.125,-2.46 4.232,-0.897 4.804,-0.261 7.364,2.876l-0.386 -7.408 7.82 -4.962c-5.508,-4.917 -13.693,-8.053 -20.334,-3.519 -3.411,2.329 -5.258,5.969 -7.455,9.849 -0.584,1.03 -0.525,0.99 -1.049,1.977 -1.308,2.465 -0.031,1.481 -2.08,3.216 -3.775,-1.782 -3.178,-6.151 -3.996,-11.184 -0.458,-2.817 -0.689,-3.836 -1.504,-6.46l-1.886 -4.483c-1.175,-2.166 0.666,-0.946 -1.766,-1.584 -0.768,-0.201 -1.49,1.075 -2.853,-2.85l-18 0c0,19.441 5.876,99.455 2.319,111 6.502,3.095 -0.648,-0.428 4.915,0.982 -0.092,-0.027 -2.162,-2.349 -1.064,1.106 1.262,3.976 5.186,1.652 5.568,1.469 0.127,-0.061 0.356,-0.252 0.47,-0.319l5.792 -3.243c-1.708,-4.975 -2.501,-4.25 -3.73,-4l8.651 3.193c-0.087,-1.136 1.089,-7.49 -5.851,-7.521 1.271,0.714 5.378,2.657 6.08,3.194 3.348,2.563 0.369,3.131 5.855,4.481 4.56,-7.052 -0.099,-5.688 7.944,-11.389 2.656,-1.883 3.004,-2.654 6.151,-3.819 2.326,-0.861 5.008,-2.055 7.237,-2.525 -1.565,-4.47 -3.188,-4.129 -3.396,-9.609 7.863,-5.642 27.884,-8.871 35.069,-3.615z"/>
  <path class="fil2" d="M129.669 118.093c-1.123,1.248 -1.554,-2.465 -0.337,2.538 0.701,2.88 2.497,1.666 3.091,6.981 -3.893,-1.387 -5.045,-3.81 -6.731,-6.487l-2.948 1.4c-3.593,2.794 -7.991,5.976 -11.773,7.903 0.166,4.487 0.431,9.95 -0.971,13.812 -4.744,-0.646 -0.754,1.262 -4.174,-2.695 0.741,5.19 -2.941,17.348 -2.102,26.476 0.548,5.957 2.66,6.944 0.443,13.021l-0.601 1.446c-5.407,16.867 -1.072,14.019 -0.203,18.337 0.65,3.232 0.488,7.631 2.156,11.413 2.349,5.326 5.311,3.221 7.513,6.951 3.142,5.319 -3.541,2.598 -7.574,2.839 -5.198,12.889 3.037,7.511 2.435,18.84 -0.348,6.531 0.968,15.666 2.902,21.925 6.494,-1.137 -1.477,-1.314 14.163,-5.879 13.075,-3.816 6.095,-0.023 16.804,-0.744 -1.036,-5.692 -3.814,-5.868 -4.737,-14.059 -0.699,-6.193 -8.361,-19.112 10.993,-15.774 2.709,-19.031 -6.741,-4.766 -13.832,-2.46l-0.542 -10.945c5.794,-1.608 4.55,5.32 10.483,-1.784 -0.207,-0.167 -0.549,-0.643 -0.662,-0.442l-4.949 -2.287c-3.582,-1.172 -2.699,0.115 -5.521,-1.35 -1.717,-7.525 3.963,-12.36 10.796,-22.219 3.518,-5.076 3.472,-2.735 5.389,-6.516 5.732,-11.305 8.446,-5.473 10.649,-12.448 -5.286,1.737 -2.92,4.262 -10.824,7.109 -1.524,-4.626 -0.092,-7.816 0,-10 -0.302,1.072 4.079,-0.219 -1.364,0.815 -13.128,2.494 -9.343,-15.646 -5.641,-10.815 -15.247,-0.315 -4.542,-11.352 1.292,-13 -0.72,1.774 -5.843,4.961 -9.287,6 0.7,-5.424 6.315,-20.958 12.99,-10.99 -2.801,-0.28 -1.042,0.612 -3.297,-2.681 -2.277,-3.325 -1.677,-3.3 -2.693,-7.319 0.183,0.221 2.809,1.382 -0.346,0.652 -0.324,-0.075 -0.789,0.555 -2.047,-1.394 -4.166,-6.456 0.038,-4.507 1.231,-5.258 -1.528,-2.207 0.335,-1.728 -3.738,-1.689 -1.412,0.014 -4.665,0.599 -6.436,0.777z"/>
  <path class="fil9" d="M0 172.005l0 38.939c2.998,-1.821 2.302,-2.269 4.663,-4.277 7.991,-6.795 1.9,0.664 9.661,-10.515 0.864,-1.243 1.043,-1.482 2.089,-2.901 1.563,-2.123 -0.374,-0.777 1.86,-2.256 -2.827,11.632 -10.567,22.348 -9.792,35.701l4.586 -6.602c2.264,-3.226 3.482,-3.192 4.27,-5.743 0.318,-1.027 0.164,-2.087 1.342,-4.54 1.599,-3.33 0.951,-0.936 2.154,-4.908l4.526 -13.38c1.397,-2.427 0.798,-1.211 1.795,-2.279 0.033,4.073 1.925,10.341 2.677,13.837 2.629,12.216 3.335,14.35 9.458,24.497 3.449,5.716 4.21,7.325 10.344,2.422 -0.808,-16.599 -7.184,-29.755 -7.429,-31.612 -1.165,-8.838 -0.645,-2.62 1.392,-5.12 0.387,0.938 1.646,3.91 2.306,4.845l5.214 5.747c0.472,0.518 1.304,1.31 2.125,1.985l12.977 10.198c3.554,2.299 7.292,4.021 11.777,4.952 -0.853,-3.96 1.834,-3.063 -7,-7.995 4.003,-1.871 0.737,2.795 1.439,-2.251 0.342,-2.451 -0.44,-3.594 -2.413,-5.087l-3.047 -2.434c-2.985,-2.708 -2.283,0.467 -2.899,-2.656 -1.458,-7.398 8.882,-1.904 14.925,-0.916l1.693 -8.656c-4.944,-1.828 -1.869,0.057 -8.688,1.84l-0.373 -7.114 13.764 5.299c1.168,-5.644 0.805,-6.179 -3.005,-8.595 -4.41,-2.798 -4.557,-0.548 -3.329,-5.748 -0.165,0.243 -0.297,0.395 -0.416,0.775 -0.246,0.787 0.066,1.732 -4.04,1.536 -4.676,-5.867 -4.765,-1.789 -1.912,-10.512 0.901,-2.753 0.492,-0.248 0.56,-2.53l-0.493 -2.755c-0.243,0.017 -0.595,-0.005 -0.676,0.278l-2.722 1.285c-0.077,0.009 -0.351,0.002 -0.431,0.002l-3.544 5.138c2.608,1.363 0.781,1.233 3.164,-1.509 -0.022,0.288 -0.225,2.385 -0.238,2.435 -0.596,2.244 -0.461,1.528 -0.935,2.455 -2.066,0.513 -2.125,-3.319 -4.5,0.602 0.369,-3.004 0.123,-4.059 1.713,-6.36 0.09,-0.13 0.29,-0.352 0.387,-0.491l2.844 -5.031 -7.612 -0.267c-0.237,-0.064 -0.551,-0.185 -0.766,-0.252 -0.216,-0.068 -0.583,-0.225 -0.759,-0.285 -0.175,-0.06 -0.525,-0.155 -0.753,-0.301 0.929,-0.274 3.224,-0.686 3.257,-0.696 2.219,-0.69 6.663,-2.427 7.468,-4.199l-2.422 -1.185c-0.174,-0.093 -0.449,-0.252 -0.629,-0.349 -0.182,-0.097 -0.446,-0.267 -0.629,-0.362l-3.53 -0.965c-1.196,0.178 -5.707,2.504 -8.222,0.987 -0.263,0.086 -0.596,0.267 -0.762,0.334l-3.249 1.383c-0.213,0.293 -0.279,2.332 -0.265,4.652 -3.909,-0.051 -3.647,0.337 -6.468,0.683 -5.664,0.693 -2.414,0.011 -2.487,-0.183 -3.482,-0.283 -3.116,-3.773 -7.995,-10.561 -1.888,3.333 -4.043,2.518 -4.046,2.513 -0.155,-0.28 -0.634,0.085 -0.949,0.048 -0.229,-1.632 1.449,-2.966 1.293,-4.438 -0.597,-5.656 0.941,2.377 -1.384,-3.774 -3.565,-9.428 -2.175,-10.265 -1.539,-14.201l0.034 -1.418c0.249,-3.886 1.134,-3.564 1.596,-4.164 -4.573,-2.78 0.112,0.597 -3.25,-3.54 -1.878,-2.311 1.091,-1.383 -4.547,-1.883 1.517,3.665 1.694,4.068 1.08,8.22 -0.32,2.168 1.565,-3.732 -0.477,2.013 -0.094,0.263 -0.47,0.992 -0.582,1.239 -1.596,3.52 -0.766,-1.528 -1.234,2.951 1.422,0.295 2.419,0.305 3.137,2.077 1.361,3.359 0.028,4.172 -0.02,3.843 -0.022,-0.146 -0.183,0.738 -0.352,1.075 -1.74,-0.526 -2.255,2.392 -2.76,-3 -2.053,11.106 0.298,2.138 0.452,12.499l-8.624 0.506c2.624,1.135 4.145,-0.377 8.477,-0.202 0.297,3.152 0.575,3.84 -0.602,7.036 -0.844,2.292 0.232,5.096 -2.708,2.171 1.033,0.785 1.249,0.995 2.743,2.115 7.129,5.347 3.109,-3.6 9.101,4.074 -0.312,0.185 -2.819,1.869 -3.25,2.014 -2.215,0.744 -0.563,0.927 -3.523,0.289 -2.815,-0.607 -0.826,0.102 -3.535,-2.053 -0.994,-0.791 -1.242,-1.143 -2.049,-1.882 -1.616,-1.479 -8.016,-6.304 -8.025,-6.303 4.149,0.656 3.284,1.089 5.737,3.528 2.791,2.773 3.046,1.948 5.494,4.652 -2.111,1.926 -0.189,1.314 -3.68,1.641 -5.455,0.512 -1.124,0.021 -3.032,-0.882 -1.568,-0.741 -3.167,-1.721 -3.976,-2.394l-1.785 3.706c-2.488,2.897 -3.732,1.702 -5.215,3.495z"/>
  <path class="fil7" d="M432.284 51.048c6.406,-0.852 10.481,-0.97 16.274,0.021 13.528,2.314 2.852,1.601 11.902,4.448l-2.494 4.655c1.632,-1.003 0.259,-0.017 1.883,-1.421l0.961 -0.947c0.32,-0.29 0.685,-3.183 7.054,1.196 -0.037,2.763 -0.872,4.479 -1.419,6.37 -5.266,18.182 -2.274,30.856 -2.05,45.081 0.462,2.893 -0.799,1.641 1.718,3.114l7.726 -6.565 2.031 -17c-1.94,-4.257 -2.152,-23.029 -1.454,-29.536 6.578,-0.42 7.044,4.029 11.858,11.2 1.593,2.372 0.19,0.199 1.392,2.557 5.152,10.11 10.145,14.693 10.582,27.779 1.282,1.158 0.463,0.329 1.556,1.217 4.978,4.046 2.711,3.452 6.916,3.422 -2.104,-17.941 -10.713,-30.805 -12.449,-36.407 5.557,0.67 12.582,10.288 17.729,12.925l0 -44.314c-12.248,0.51 -19.999,4.122 -30.385,6.557 0.813,-8.361 -0.786,-3.69 3.35,-5.325 3.364,-1.329 0.489,-0.91 4.346,-3.852 8.448,-6.441 2.188,-4.051 6.732,-7.638l4.345 -2.662c3.399,-2.034 2.701,-1.962 7.503,-2.1 -1.374,-2.081 -1.629,-2.486 -0.826,-4.285l4.935 1.693 0 -14.622c-14.499,1.261 -25.034,12.169 -32.093,23.334 -6.528,10.326 -2.704,9.841 -7.907,9.866 -3.097,-5.482 1.229,0.135 0.431,-10.077 -0.475,-6.091 1.153,-5.106 2.121,-11.148 0.84,-5.244 0.088,-7.796 1.705,-12.431 3.496,-10.023 3.439,-0.414 5.682,-6.153l-13.943 0c-0.089,5.727 -0.797,11.24 -0.851,18.008 -0.052,6.697 1.111,11.453 0.457,17.563 -2.247,-5.674 -12.834,-20.214 -16.971,-24.195 -2.401,-2.312 -3.061,-3.266 -6.608,-4.435 -11.29,-3.723 -14.639,6.829 -12.43,13.48 0.62,-3.263 0.457,0.39 2.876,-4.783 3.333,1.018 1.079,0.352 3.024,1.955 0.462,0.382 0.728,1.121 1.961,1.897 3.196,2.012 7.442,-1.101 17.699,11.272l2.031 2.434c0.841,0.72 2.298,-0.861 4.599,7.433 -2.09,-1.765 -3.769,-3.354 -6.21,-5.227 -13.786,-10.581 -3.561,-3.18 -15.147,-8.9 -8.687,-4.289 -20.175,-3.288 -25.736,3.195l-5.543 11.415c-0.028,0.674 -0.099,0.625 0.853,2.181l2.398 -1.83c1.431,-1.511 0.385,-0.663 1.77,-2.205 5.876,-6.545 7.308,-2.151 7.571,-1.877 1.926,2.013 0.24,3.255 3.363,1.66 2.969,-1.517 1.502,-3.645 4.399,-3.222 3.183,0.464 -4.184,0.671 12.499,2.232 4.291,5.292 0.589,2.878 7.275,4.511 9.395,2.295 7.107,0.735 8.071,4.438 -0.237,0.146 -0.565,0.299 -0.744,0.379l-2.264 0.966c-9.266,3.19 -19.43,0.342 -24.054,2.703z"/>
  <path class="fil6" d="M301.743 83.493l-1.378 10.777c-6.578,27.271 7.022,29.467 -8.404,39.416 -1.447,2.867 -1.41,16.993 -2.382,25.785l0.015 0.849c0.735,3.995 0.306,-2.717 0.965,1.332 -4.409,5.193 -2.364,7.886 -3.185,15.898 -0.634,6.194 -1.156,12.442 -0.507,18.845l13.406 -2.916c0.211,6.211 1.539,4.834 1.071,11.018l2.448 -3.869c1.339,-5.418 -1.903,2.706 0.282,-1.648 1.38,0.917 3.334,2.053 4.853,2.973 -1.907,-6.306 -10.825,-22.134 -6.739,-28.778 3.015,3.631 3.17,9.466 3.089,15.607 4.611,-12.709 -2.201,-11.081 -1.382,-24.782 1.441,-1.208 2.972,-2.422 4.696,-3.598 2.487,-1.697 1.225,-2.968 4.766,-1.002 -0.165,-1.806 0.081,-4.003 0.108,-4.238l0.143 -1.089c0.007,-0.185 0.012,-0.458 0.011,-0.665 -0.006,-0.638 -0.284,-2.776 -0.295,-4.031 1.768,0.501 4.791,0.401 2.9,1.623 -0.191,-3.689 -0.959,-6.192 -1.302,-10.041 -0.592,-6.656 -1.682,-4.863 -0.334,-10.222 -0.28,-6.122 1.49,-9.972 1.167,-15.737 -0.006,-0.016 -7.178,-6.082 -7.984,-16l5.491 -3c-2.194,-1.794 -0.24,-0.532 -3.07,-1.021l-1.834 -0.024c-0.066,-0.179 -0.362,0.104 -0.528,0.045 1.859,-4.202 -1.343,-0.677 4.314,-3.066l-5.339 0.066c-1.105,-20.677 14.121,-17.665 21.372,-6 -0.212,0.194 -0.553,0.354 -0.734,0.453 -3.699,2.032 -6.663,2.253 -7.448,4.547l0.684 1.61c0.309,3.771 0.794,-0.052 -0.674,1.395 0.31,-0.086 0.698,-0.12 0.952,-0.16l7.552 -1.379c-0.187,-0.201 -0.51,-0.357 -0.677,-0.464l-5.524 -3.512c4.268,-1.344 6.604,-1.865 8.687,3.328 5.761,14.372 2.963,10.31 -2.236,27.369 4.077,1.233 0.384,0.654 3.384,0.968 4.398,0.461 1.625,0.169 2.185,-0.504 -0.612,4.222 -0.718,-0.705 -1.184,3.625 -0.08,0.74 0.082,1.8 0.106,2.044 0.558,5.545 -1.614,1.043 -2.644,9.409l2.344 -1.728c0.191,-0.134 1.509,-1.001 1.521,-1.003 2.322,-0.366 1.188,13.978 1.186,13.989l13.952 8.406c1.929,2.222 0.809,1.141 1.97,3.16 9.647,16.785 -0.935,10.234 5.125,32.221 2.21,8.014 -0.287,12.51 -7.269,14.054 0.163,0.018 0.395,0.03 0.441,0.216l0.9 0.451c2.188,0.904 0.65,0.596 1.955,0.549 5.381,-0.192 3.994,-4.052 8.668,1.534 1.105,1.321 0.284,0.518 1.455,1.705 1.246,1.262 0.325,0.503 1.817,1.57 -1.032,-14.99 0.532,-27.851 0.441,-42.875 -0.039,-6.582 -1.34,-13.554 -2.355,-19.387 -1.142,-6.562 -0.736,-15.571 -0.584,-22.342l-2.173 -3.141c-8.659,-0.392 -6.528,-0.959 -10.882,-5.231 -3.144,-3.085 -4.85,-3.21 -6.754,-8.273 -2.4,-6.382 -4.161,-24.111 -9.3,-28.629 -6.914,-6.078 -12.862,-11.543 -21.347,-8.058 -4.81,1.975 -8.196,9.641 -9.974,11.576z"/>
  <path class="fil10" d="M364.16 35.231l2.921 -2.219c2.811,-2.117 3.017,-2.479 7.462,-2.903 13.209,-1.26 22.204,3.262 24.086,19.664 8.598,2.301 -0.799,14.624 7.813,9.88 8.528,-4.699 14.893,-6.997 25.842,-8.605 4.624,-2.361 14.788,0.487 24.054,-2.703l2.264 -0.966c0.179,-0.08 0.507,-0.233 0.744,-0.379 -0.964,-3.703 1.324,-2.143 -8.071,-4.438 -6.686,-1.633 -2.984,0.781 -7.275,-4.511 -16.683,-1.561 -9.316,-1.768 -12.499,-2.232 -2.897,-0.423 -1.43,1.705 -4.399,3.222 -3.123,1.595 -1.437,0.353 -3.363,-1.66 -0.263,-0.274 -1.695,-4.668 -7.571,1.877 -1.385,1.542 -0.339,0.694 -1.77,2.205l-2.398 1.83c-0.952,-1.556 -0.881,-1.507 -0.853,-2.181l5.543 -11.415c5.561,-6.483 17.049,-7.484 25.736,-3.195 11.586,5.72 1.361,-1.681 15.147,8.9 2.441,1.873 4.12,3.462 6.21,5.227 -2.301,-8.294 -3.758,-6.713 -4.599,-7.433l-2.031 -2.434c-10.257,-12.373 -14.503,-9.26 -17.699,-11.272 -1.233,-0.776 -1.499,-1.515 -1.961,-1.897 -1.945,-1.603 0.309,-0.937 -3.024,-1.955 -2.419,5.173 -2.256,1.52 -2.876,4.783 -2.209,-6.651 1.14,-17.203 12.43,-13.48 3.547,1.169 4.207,2.123 6.608,4.435 4.137,3.981 14.724,18.521 16.971,24.195 0.654,-6.11 -0.509,-10.866 -0.457,-17.563 0.054,-6.768 0.762,-12.281 0.851,-18.008l-108.387 0 0.045 7.733c-1.261,0.008 -3.453,-0.095 -4.614,0.1l-3.217 1.167c0.706,5.221 -0.895,1.241 2.389,3.798 5.812,4.526 5.635,0.833 5.627,11.338 6.538,-0.052 4.223,0.708 8.092,-2.112l2.703 4.727c-5.284,-0.52 -2.393,-2.596 -4.946,2.013l-1.528 6.467z"/>
  <path class="fil8" d="M466.113 113.565l7.01 13.831c8.775,0.422 5.985,-10.682 14.856,-6.545 5.278,2.461 11.199,3.968 13.487,11.149 -0.191,0.06 -0.534,-0.179 -0.6,0.023l-10.616 1.988c-4.308,0.458 -6.845,2.355 -12.645,2.089l13.682 26.9c-1.638,3.903 -3.926,5.249 -1.998,10.48 1.56,4.234 3.649,4.715 0.953,11.868 -1.567,4.157 -3.786,4.432 -3.413,10.535 0.287,4.709 0.96,9.178 1.074,14.112 1.916,0.764 1.968,0.483 4.092,1 1.702,-2.835 -0.155,-1.716 4,-2 0,-6.143 1,-7.73 1,-13l2.002 11c2.815,0.057 3.438,1.051 4.412,2.024l1.586 1.976c3.962,-6.212 4.695,-2.047 7.005,-6l0 -121.838c-5.147,-2.637 -12.172,-12.255 -17.729,-12.925 1.736,5.602 10.345,18.466 12.449,36.407 -4.205,0.03 -1.938,0.624 -6.916,-3.422 -1.093,-0.888 -0.274,-0.059 -1.556,-1.217 -0.437,-13.086 -5.43,-17.669 -10.582,-27.779 -1.202,-2.358 0.201,-0.185 -1.392,-2.557 -4.814,-7.171 -5.28,-11.62 -11.858,-11.2 -0.698,6.507 -0.486,25.279 1.454,29.536l-2.031 17 -7.726 6.565z"/>
  <path class="fil11" d="M453.871 258.437c1.121,10.534 -6.21,10.515 -2.99,39.929 3.46,31.619 -1.161,9.348 -1.835,37.274 0.417,0.749 0.351,-0.397 1.042,2.374 0.275,1.106 0.298,1.895 0.43,2.986l61.482 0 0 -1.756c-4.658,-0.585 -8.019,-3.015 -12.364,-4.638 -1.005,-0.375 -1.569,-0.476 -2.232,-0.764 -5.156,-2.242 -7.191,-12.937 -8.266,-18.847 -0.059,-0.266 -0.216,-0.586 -0.288,-0.763 -0.074,-0.179 -0.213,-0.545 -0.305,-0.766l-1.004 -2.267c-2.771,-6.676 -1.636,-9.191 0.086,-16.199 -1.893,-1.832 -5.13,-3.844 -6.106,-5.447 -4.788,-7.859 5.783,-10.185 -0.481,-24.208 -4.98,1.3 -0.869,2.059 -4.929,2.399 -2.331,0.196 -1.306,0.643 -5.008,-2.744 0.744,-3.615 0.703,-3.28 2.31,-5.783 2.98,-4.643 1.38,1.747 1.955,-2.114 0.014,-0.094 0.165,-0.047 0.226,-0.103 -4.933,-3.328 -3.087,-5.068 -4.051,-11.39 -6.474,2.392 -10.132,5.469 -17.013,2.961l-0.659 9.866z"/>
  <path class="fil12" d="M380.09 316.383c-0.014,1.628 -0.586,12.269 -0.736,13.058 -1.46,7.676 -0.629,4.139 0.443,11.559l29.926 0c0.046,-4.278 -1.65,-11.084 -2.151,-15.021l-0.751 -11.145c-0.042,-0.155 -0.172,-0.435 -0.21,-0.597 -1.218,-5.324 0.438,-2.496 1.355,-7.327 0.797,-4.199 -0.324,-14.169 1.614,-22.623 1.915,2.137 0.457,-2.117 2.336,4.078l1.403 10.478c1.869,9.288 8.428,36.01 6.171,42.157l31.028 0c-0.132,-1.091 -0.155,-1.88 -0.43,-2.986 -0.691,-2.771 -0.625,-1.625 -1.042,-2.374l-1.046 1.996c-3.105,-1.29 -4.525,-2.361 -7.951,-4.054 -8.323,-4.115 -2.686,-3.044 -8.685,-3.577 0.711,-0.328 0.513,2.893 0.694,-1.425 0.17,-4.071 -3.709,-4.047 -3.04,-7.202 0.859,-4.048 1.159,1.166 0.982,-1.193 -4.306,-11.181 -3.361,-5.04 -7.364,-9.714 -2.195,-2.563 -2.909,-8.937 -3.199,-13.471l4.017 -2.411c-2.18,-0.423 -3.178,-0.977 -4.765,-1.925 0.415,-5.539 1.541,-5.882 5.962,-7.859 4.289,-1.919 7.597,-0.723 8.95,-3.805 -3.94,-2.058 -8.515,1.686 -13.918,-2.368 -0.379,-0.778 -1.834,-7.695 -2.643,-10.204 -5.089,-2.988 -9.217,-3.857 -12.365,-5.456l-9.981 -8.494c-0.276,0.09 -1.678,0.774 -1.955,0.895 -6.051,2.648 -5.552,0.554 -9.762,0.848l-4.797 1.779c1.876,3.949 -0.442,0.382 2.63,2.544l15.195 8.451c-0.877,-1.084 1.589,-1.628 -1.409,-0.662 -0.775,0.25 -1.474,1.607 -1.626,1.373 -0.218,-0.335 -0.656,0.695 -0.965,1.058 3.04,0.235 4.178,0.642 5.599,0.466 -2.249,1.171 -4.636,1.503 -3.756,5.569 0.677,3.127 2.904,3.067 5.158,4.075 -6.943,5.09 -0.636,4.936 -3.149,13.254 -0.931,3.079 -1.014,0.925 -0.247,4.904l0.115 3.8c-0.384,2.361 1.153,1.391 -5.972,4.476 -3.493,1.513 -6.683,3.785 -8.236,7.242l8.478 -1.545c-1.396,4.37 -0.481,2.481 -3.503,4.817l-3.492 2.076c-4.196,-8.924 -1.805,-2.655 -2.91,-3.515z"/>
  <path class="fil13" d="M369.946 280.034c0.604,11.59 3.8,31.846 10.144,36.349 1.105,0.86 -1.286,-5.409 2.91,3.515l3.492 -2.076c3.022,-2.336 2.107,-0.447 3.503,-4.817l-8.478 1.545c1.553,-3.457 4.743,-5.729 8.236,-7.242 7.125,-3.085 5.588,-2.115 5.972,-4.476l-0.115 -3.8c-0.767,-3.979 -0.684,-1.825 0.247,-4.904 2.513,-8.318 -3.794,-8.164 3.149,-13.254 -2.254,-1.008 -4.481,-0.948 -5.158,-4.075 -0.88,-4.066 1.507,-4.398 3.756,-5.569 -1.421,0.176 -2.559,-0.231 -5.599,-0.466 0.309,-0.363 0.747,-1.393 0.965,-1.058 0.152,0.234 0.851,-1.123 1.626,-1.373 2.998,-0.966 0.532,-0.422 1.409,0.662l-15.195 -8.451c-3.072,-2.162 -0.754,1.405 -2.63,-2.544l4.797 -1.779c4.21,-0.294 3.711,1.8 9.762,-0.848 0.277,-0.121 1.679,-0.805 1.955,-0.895l9.981 8.494c3.148,1.599 7.276,2.468 12.365,5.456 -0.534,-2.318 -0.517,-4.234 -0.987,-5.991 -1.702,-6.357 -6.311,-3.651 -7.478,-7.961 5.747,-0.297 3.413,0.146 4.732,-2.723 -1.135,-0.214 -10.808,0.018 -12.534,-8.753 0.227,-0.163 0.563,-0.313 0.74,-0.395l16.902 -3.472c2.715,-0.546 0.8,0.202 3.352,-0.983 3.145,-1.462 1.707,-1.079 2.13,-1.54 -11.4,0.376 -32.717,1.831 -44.046,0.141 -4.932,-0.736 -4.452,-2.005 -12.337,-2.659 -1.128,7.244 -1.858,19.399 -0.756,26.068 0.808,4.889 1.615,6.803 2.946,11.041 1.413,4.495 3.526,6.369 0.242,8.833z"/>
  <path class="fil14" d="M486.442 246.005c-1.139,-1.349 -1.768,-3.461 -2.496,-5.344l-10.946 1.567c-1.975,2.689 -1.712,-2.852 -1.457,3.382 0.964,6.322 -0.882,8.062 4.051,11.39 -0.061,0.056 -0.212,0.009 -0.226,0.103 -0.575,3.861 1.025,-2.529 -1.955,2.114 -1.607,2.503 -1.566,2.168 -2.31,5.783 3.702,3.387 2.677,2.94 5.008,2.744 4.06,-0.34 -0.051,-1.099 4.929,-2.399 6.264,14.023 -4.307,16.349 0.481,24.208 0.976,1.603 4.213,3.615 6.106,5.447 -1.722,7.008 -2.857,9.523 -0.086,16.199l1.004 2.267c0.092,0.221 0.231,0.587 0.305,0.766 0.072,0.177 0.229,0.497 0.288,0.763l5.856 0c-1.83,-4.733 0.279,-0.174 -2.081,-2.953l-2.112 -2.042c2.369,-3.666 0.034,-0.399 5.109,-0.73 2.882,-0.188 4.703,-3.621 4.567,0.474 -0.132,3.977 2.116,-1.481 -0.942,1.492 -0.198,0.192 -0.502,0.386 -0.721,0.566l-1.809 1.198c2.373,1.186 4.249,0.791 5.881,3.475 1.985,3.263 -0.661,2.845 3.114,5.927 5.144,-6.132 -4.695,-23.134 0,-27.687 1.688,3.392 0.361,0.762 2.449,3.583l2.645 4.015c0.143,0.242 0.337,0.59 0.454,0.791 0.118,0.205 0.3,0.542 0.452,0.811l0 -61.91 -7.265 -10.717c-1.914,2.243 -2.347,1.515 -0.539,8.321 0.734,2.762 1.104,5.549 1.539,8.359 0.588,3.793 0.671,14.098 -3.322,14.456 -1.753,-2.193 -0.831,-12.099 -1.038,-16.506 -0.348,-7.377 -1.128,-11.942 -6.37,-13.913 -1.248,4.908 -1.205,9.37 -2.14,14.146 -2.465,12.593 3.962,4.138 4.14,9.849 -8.729,0.058 -3.35,3.087 -16.809,1.637 3.673,-4.842 6.469,-1.903 6.246,-11.632z"/>
  <path class="fil10" d="M68.995 30.434c0.15,1.482 0.092,0.556 1.828,1.649l1.314 0.728c5.251,3.056 15.63,10.389 14.863,17.194 -7.93,-9.974 -8.255,-1.237 -14.416,-3.686 -4.065,-1.615 -1.374,-4.104 -7.014,-2.351 -5.456,1.694 -3.748,0.428 -9.588,-0.131 -2.618,3.938 -1.195,4.746 -5.975,5.107l-3.085 -0.189c-3.793,0.327 -2.377,0.321 -3.705,2.202 8.809,5.978 23.686,-4.957 32.782,6.025 1.075,1.298 1.665,2.221 2.515,3.416 2.851,4.006 0.011,2.116 3.712,3.788l0.228 -4.839c1.263,-0.762 3.321,-1.482 4.711,-2.137l-1.013 -3.911c3.652,3.325 -0.07,1.529 4.013,2.859 0.098,-8.694 2.576,-9.793 4.052,-15.948 0.819,-0.009 2.026,0.062 2.798,-0.087 3.979,-0.77 -1.922,2.247 3.101,-1.123 0.164,-6.369 -0.776,-8.078 -0.726,-14.61 7.13,-0.303 2.58,0.251 4.29,1.09 0.646,0.317 -0.814,7.991 3.692,-4.244 0.772,-2.098 1.286,-2.191 1.924,-4.941 2.764,0.313 0.809,0.318 1.857,0.723 4.1,1.588 4.017,1.198 8.884,1.052l0.372 -18.07 -47.414 0 0 23c-2.817,2.391 3.863,1.995 -3.995,1.995 0.757,2.515 -1.467,-0.5 1.491,0.932 1.746,0.845 1.684,0.401 2.504,1.073 -6.403,5.433 -3.037,-1.966 -4,3.434z"/>
  <path class="fil15" d="M203.728 203.019c-1.87,12.976 -1.808,11.362 1.31,22.987 1.073,3.999 1.686,7.044 2.377,11.556 0.822,5.363 1.993,7.73 -0.955,11.435 2.626,8.184 2.893,22.933 1.9,31.835 -0.402,5.265 -1.118,24.262 0.789,29.122l2.309 5.575c5.45,1.352 10.659,1.282 17.161,0.902 2.156,-9.139 -0.678,-24.533 -3.038,-32.963 -1.133,-4.045 -5.038,-9.47 -5.541,-13.509 -0.313,-2.507 0.519,-5.951 0.395,-8.985 -0.179,-4.419 -1.263,-5.804 -1.647,-9.969 1.29,-2.971 0.72,-43.373 0.189,-51.005 -2.237,-2.291 -2.292,-1.523 -4.112,-2.939 -1.985,-1.544 -1.542,-1.745 -3.378,-3.539 -1.304,-1.273 -2.333,-2.016 -3.953,-3.237 -3.08,-2.32 -1.68,-2.253 -2.798,-1.285 -1.665,3.225 -1.01,9.545 -1.008,14.019z"/>
  <path class="fil16" d="M290.444 232.208l0.379 3.149c-9.134,-2.041 -6.563,4.488 -7.563,11.93 -1.188,0.784 -1.6,0.976 -3.525,1.696l1.068 9.055c1.552,3.648 1.674,-0.209 7.416,4.727l3.832 4.337c0.078,0.097 1.614,1.807 1.615,1.808l14.662 5.489 1.141 7.095c8.837,1.142 5.847,-3.069 23.272,2.317 3.841,1.188 -1.209,-0.797 2.283,0.491 0.167,0.061 0.458,0.133 0.628,0.212 0.186,0.087 0.468,0.22 0.651,0.324 2.003,1.14 0.467,-0.098 2.004,1.599 6.398,-0.527 8.503,0.458 13.719,-2.287 -7.755,0.596 -5.709,1.682 -13.511,-0.544 -0.006,-2.563 2.221,-7.819 2.602,-11.74 0.433,-4.442 -0.816,-7.443 -0.986,-12.73 3.807,-1.767 6.977,-1.52 9.062,-3.148l-1.193 -3.677c-4.503,0.517 -1.566,7.589 -13.301,1.679 -7.374,-3.713 2.41,1.809 -1.028,-5.381 -0.663,-1.386 -0.97,-0.509 -2.258,-4.123l-0.859 -3.155c-0.071,-0.177 -0.182,-0.462 -0.259,-0.618 -2.715,-5.437 -0.157,3.384 -2.386,-2.713l3.186 -0.098c0.055,0.005 0.373,0.184 0.411,0.05 0.037,-0.129 0.276,0.104 0.397,0.048 -2.588,-5.694 0.201,-1.068 -4.741,-3.882 -1.046,8.862 -7.062,3.23 -7.297,11.882 4.242,3.436 3.501,-0.351 6.432,5 -2.282,1.41 -4.972,1.191 -7.608,1.151l2.96 13.429c-0.559,4.795 -0.202,3.156 0.038,7.666 0.141,2.66 -0.708,3.374 -1.063,7.29l-10.107 -0.349c-1.95,-13.972 -6.245,-3.316 -3.566,-10.481 1.654,-4.424 -0.53,0.7 2.323,-1.641 2.544,-2.087 1.726,-3.344 2.167,-7.17 0.605,-5.245 1.923,-6.363 2.46,-8.667l-8.906 -3.223c-0.039,-12.444 -6.208,-12.797 -6.685,-13.194l-2.249 -2.677c-0.127,-0.52 -0.368,-0.627 -0.625,-0.879 -1.001,4.08 -0.084,2.461 -2.385,3.562 1.872,-6.105 2.296,-11.304 4.4,-15.68 1.921,-3.995 5.386,-9.439 3.893,-15.64 -2.216,1.571 -1.516,1.273 -3.29,6.571l-7.61 21.14z"/>
  <path class="fil14" d="M225.14 92.446c0.329,7.792 -1.214,5.09 -7.144,4.74 -1.001,-0.059 -0.923,0.866 -3.634,-1.452 -0.161,-0.138 -0.398,-0.342 -0.554,-0.494l-2.447 -4.09c-0.21,0.164 -0.534,0.324 -0.679,0.423l-3.697 3.411c-4.514,7.044 -0.749,9.15 -11.544,11.74l-0.402 -17.968c1.164,1.914 -3.492,13.709 -4.525,16.689 -2.798,-2.878 -1.672,-5.763 -2.933,-9.662l-2.505 8.253 -0.636 -7.534c-3.426,0.881 0.506,-0.133 -1.599,1.107 -2.641,1.556 1.428,1.192 -0.877,0.39l-0.187 -9.004c-1.225,0.314 -1.626,7.478 -2.627,9.491 -0.621,1.249 -1.753,2.201 -2.594,2.601 -2.073,0.985 -0.596,-0.444 -3.932,1.243 -3.575,1.333 -0.774,-0.981 -6.632,-1.011 -3.423,-0.018 -4.85,1.1 -8.208,1.642l-1.347 -2.025c-1.054,0.192 -3.953,0.895 -4.466,0.856 -5.413,-0.406 -0.622,-1.273 -4.998,-3.759 -2.328,-1.323 0.144,-3.054 -2.157,0.07l-0.257 4.381c0.543,0.728 0.536,0.824 1.111,1.65l5.262 6.043c19.162,15.676 27.291,-2.539 28.098,-2.959 9.505,4.175 4.979,4.443 8.899,6.859 3.124,1.924 7.013,2.225 10.853,4.895 4.732,-0.917 17.831,-8.167 22.321,-8.269 2.485,-0.056 -0.752,-0.368 1.816,0.154 7.176,1.458 0.364,7.949 6.199,17.582 1.599,-4.559 1.011,-6.474 9.416,-0.721 0.197,0.135 0.539,0.332 0.767,0.548 0.732,4.487 0.401,5.324 2.59,8.248l1.311 -3.353c0.107,-0.247 0.294,-0.619 0.388,-0.828 0.096,-0.216 0.229,-0.594 0.41,-0.853 12.052,1.217 9.196,-2.289 15.872,-2.864 0.221,3.327 0.44,16.53 1.323,17.65 -1.285,-11.022 2.733,-12.108 1.924,-23.852 -1.283,-1.916 -0.45,-0.576 -0.35,-3.079 0.033,-0.827 0.59,0.513 -0.065,-3.137 -0.595,-3.312 -1.337,-4.441 -1.323,-8.259 -1.54,1.881 -1.126,5.386 -1.293,7.042 -0.535,5.319 -6.323,12.76 -10.521,13.528 -3.897,0.713 -8.456,-2.401 -10.921,-4.131 -4.644,-3.258 -4.225,-3.525 -5.729,-9.93 -3.297,-1.544 -5.569,0.321 -6.495,-9.448l3.009 0.295c0.191,-0.015 0.601,-0.112 0.764,-0.13 0.171,-0.02 0.555,-0.047 0.8,-0.165 -0.711,-10.079 -7.775,-16.858 9.897,-21.549 6.673,-1.77 9.688,-0.791 12.904,2.652 4.901,5.247 4.209,5.675 4.209,14.892 3.496,-1.951 1.661,-0.28 3.99,-2.632l-1.113 -6.529c-0.124,-3.179 -1.662,-5.952 -3.294,-8.25 -1.704,-2.082 -1.691,-2.376 -3.412,-3.653l-7.587 -2.759 -5.68 -0.06c-8.435,2.473 -15.457,7.352 -15.769,15.334z"/>
  <path class="fil13" d="M419.683 278.632c5.403,4.054 9.978,0.31 13.918,2.368 -1.353,3.082 -4.661,1.886 -8.95,3.805 -4.421,1.977 -5.547,2.32 -5.962,7.859 1.587,0.948 2.585,1.502 4.765,1.925l-4.017 2.411c0.29,4.534 1.004,10.908 3.199,13.471 4.003,4.674 3.058,-1.467 7.364,9.714 0.177,2.359 -0.123,-2.855 -0.982,1.193 -0.669,3.155 3.21,3.131 3.04,7.202 -0.181,4.318 0.017,1.097 -0.694,1.425 5.999,0.533 0.362,-0.538 8.685,3.577 3.426,1.693 4.846,2.764 7.951,4.054l1.046 -1.996c0.674,-27.926 5.295,-5.655 1.835,-37.274 -3.22,-29.414 4.111,-29.395 2.99,-39.929 -0.881,-6.777 -0.824,-1.932 -2.15,-6.019 -0.659,-2.029 -0.539,-4.468 -0.622,-6.786l-9.311 0.511c0.221,-0.162 0.564,-0.309 0.706,-0.422l2.487 -3.526 -5.346 -3.756c-8.67,-0.982 -1.95,-0.853 -4.619,2.497l6.353 1.064c-0.057,0.167 -0.199,0.373 -0.248,0.467 -0.057,0.11 -0.212,0.409 -0.285,0.552l-1.831 3.759c5.03,1.952 2.382,2.823 5.473,5.63 2.833,2.572 4.219,1.468 7.522,4.225 -2.679,-0.879 -0.883,3.119 -6.668,10.71l-8.332 11.633 -17.317 -0.344z"/>
  <path class="fil17" d="M314.588 130.737c2.606,4.964 3.653,7.254 5.981,13.661 1.828,5.028 3.221,11.349 5.386,15.565 3.978,-2.088 7.259,-10.316 9.702,-13.976 0.002,-0.011 1.136,-14.355 -1.186,-13.989 -0.012,0.002 -1.33,0.869 -1.521,1.003l-2.344 1.728c1.03,-8.366 3.202,-3.864 2.644,-9.409 -0.024,-0.244 -0.186,-1.304 -0.106,-2.044 0.466,-4.33 0.572,0.597 1.184,-3.625 -0.56,0.673 2.213,0.965 -2.185,0.504 -3,-0.314 0.693,0.265 -3.384,-0.968 5.199,-17.059 7.997,-12.997 2.236,-27.369 -2.083,-5.193 -4.419,-4.672 -8.687,-3.328l5.524 3.512c0.167,0.107 0.49,0.263 0.677,0.464l-7.552 1.379c-0.254,0.04 -0.642,0.074 -0.952,0.16 1.468,-1.447 0.983,2.376 0.674,-1.395l-0.684 -1.61c0.785,-2.294 3.749,-2.515 7.448,-4.547 0.181,-0.099 0.522,-0.259 0.734,-0.453 -7.251,-11.665 -22.477,-14.677 -21.372,6l5.339 -0.066c-5.657,2.389 -2.455,-1.136 -4.314,3.066 0.166,0.059 0.462,-0.224 0.528,-0.045l1.834 0.024c2.83,0.489 0.876,-0.773 3.07,1.021l-5.491 3c0.806,9.918 7.978,15.984 7.984,16 0.323,5.765 -1.447,9.615 -1.167,15.737z"/>
  <path class="fil18" d="M423.897 236.61c-0.423,0.461 1.015,0.078 -2.13,1.54 -2.552,1.185 -0.637,0.437 -3.352,0.983l-16.902 3.472c-0.177,0.082 -0.513,0.232 -0.74,0.395 1.726,8.771 11.399,8.539 12.534,8.753 -1.319,2.869 1.015,2.426 -4.732,2.723 1.167,4.31 5.776,1.604 7.478,7.961 0.47,1.757 0.453,3.673 0.987,5.991 0.809,2.509 2.264,9.426 2.643,10.204l17.317 0.344 8.332 -11.633c5.785,-7.591 3.989,-11.589 6.668,-10.71 -3.303,-2.757 -4.689,-1.653 -7.522,-4.225 -3.091,-2.807 -0.443,-3.678 -5.473,-5.63l1.831 -3.759c0.073,-0.143 0.228,-0.442 0.285,-0.552 0.049,-0.094 0.191,-0.3 0.248,-0.467l-6.353 -1.064c2.669,-3.35 -4.051,-3.479 4.619,-2.497 2.866,0.25 3.062,0.924 5.366,-0.659 1.638,-1.126 1.445,-1.977 1.64,-3.872l-10.898 0.339 -11.846 2.363z"/>
  <path class="fil19" d="M184.601 255.921c5.911,-0.455 6.58,-0.036 11.348,-2.997 2.963,-1.84 6.867,-3.039 10.511,-3.927 2.948,-3.705 1.777,-6.072 0.955,-11.435 -0.691,-4.512 -1.304,-7.557 -2.377,-11.556 -3.118,-11.625 -3.18,-10.011 -1.31,-22.987 0.991,-9.906 -0.558,-14.283 -1.765,-23.142 -1.002,-7.353 2.002,-13.34 0.012,-20.654 -2.053,1.119 0.577,0.204 -2.768,0.902l-0.4 6.875c-4.212,2.121 1.421,0.057 -2.642,-2.208l-0.407 18.208c-2.942,2.474 -3.482,1.441 -4.323,10.31 -2.78,29.289 -2.361,11.862 -6.386,23.619 -3.924,11.46 -1.51,3.976 -4.998,9.039 5.202,1.597 -1.341,-2.107 5.111,0.828 0.602,0.274 1.429,1.041 1.585,0.783 0.147,-0.244 0.575,0.261 0.847,0.421 -0.106,0.259 -0.346,0.546 -0.441,0.716l-1.141 2.109c-2.19,5.574 0.097,13.684 0.786,16.794 1.175,5.299 -1.536,4.888 -1.543,4.892l3.84 1.494c-1.943,0.304 -1.125,0.067 -2.982,0.789l-1.512 1.127z"/>
  <path class="fil20" d="M309.782 287.933l0.865 1.299c4.427,7.627 6.774,14.819 6.706,24.09l-26.404 2.04c-1.614,-0.006 -3.104,-0.198 -4.607,-0.26 -0.309,-0.012 -1.11,-0.041 -1.345,-0.036 -4.535,0.102 -0.52,-0.27 -1.381,0.204l-0.881 3.665c0.941,-0.028 5.421,-0.886 8.26,-0.93 -1.623,5.81 0.027,1.07 -1,3.556 3.74,-1.928 23.56,-1.245 28.593,-0.561 0.278,3.433 0.255,7.466 1.944,9.598l-0.166 -11.586c2.826,-2.899 11.218,-6.234 12.639,-6.017 1.038,12.189 3.177,8.595 4.04,28.005l3.247 0 -1.216 -15.981c2.576,-1.289 2.027,0.537 3.605,-3.397l0.454 -2.629c0.896,-4.93 2.164,-7.11 -2.104,-12.059 -1.796,-2.082 -7.969,-19.288 -2.724,-20.497 -1.537,-1.697 -0.001,-0.459 -2.004,-1.599 -0.183,-0.104 -0.465,-0.237 -0.651,-0.324 -0.17,-0.079 -0.461,-0.151 -0.628,-0.212 -3.492,-1.288 1.558,0.697 -2.283,-0.491 -17.425,-5.386 -14.435,-1.175 -23.272,-2.317l0.313 6.439z"/>
  <path class="fil21" d="M261.381 107.939l0.614 -9.576c-2.329,2.352 -0.494,0.681 -3.99,2.632 0,-9.217 0.692,-9.645 -4.209,-14.892 -3.216,-3.443 -6.231,-4.422 -12.904,-2.652 -17.672,4.691 -10.608,11.47 -9.897,21.549 -0.245,0.118 -0.629,0.145 -0.8,0.165 -0.163,0.018 -0.573,0.115 -0.764,0.13l-3.009 -0.295c0.926,9.769 3.198,7.904 6.495,9.448 1.504,6.405 1.085,6.672 5.729,9.93 2.465,1.73 7.024,4.844 10.921,4.131 4.198,-0.768 9.986,-8.209 10.521,-13.528 0.167,-1.656 -0.247,-5.161 1.293,-7.042z"/>
  <path class="fil21" d="M397.182 59.71c4.472,3.165 8.276,14.415 8.521,16.774 1.169,-0.966 1.025,-1.078 2.424,-2.302 2.715,-2.375 0.69,-1.237 3.873,-2.569l4.666 8.916 10.21 1.599 1.426 -9.129c1.24,-0.719 5.384,-2.11 7.949,-5.501 1.095,-1.447 0.279,-0.552 0.904,-1.185l3.547 -1.865 -1.524 16.933c5.411,-4.601 -1.2,-7.204 7.149,-5.879l0.26 -7.505c9.153,-5.192 0.005,-5.761 11.379,-7.825l2.494 -4.655c-9.05,-2.847 1.626,-2.134 -11.902,-4.448 -5.793,-0.991 -9.868,-0.873 -16.274,-0.021 -10.949,1.608 -17.314,3.906 -25.842,8.605 -8.612,4.744 0.785,-7.579 -7.813,-9.88 -3.796,3.463 -1.595,4.072 -1.447,9.937z"/>
  <path class="fil21" d="M352.026 284.15c-5.216,2.745 -7.321,1.76 -13.719,2.287 -5.245,1.209 0.928,18.415 2.724,20.497 4.268,4.949 3,7.129 2.104,12.059l-0.454 2.629c-1.578,3.934 -1.029,2.108 -3.605,3.397l1.216 15.981 19.679 0c-0.047,-10.682 -2.045,-19.785 -1.231,-29.968 0.705,-8.832 1.979,-18.352 2.779,-27.421l-2.522 -0.664 -6.971 1.203z"/>
  <path class="fil21" d="M454.591 219.894l-0.258 2.639c-0.184,-0.702 0.347,-1.421 -1.844,-0.533 -0.339,5.095 -1.36,3.65 -0.622,10.112 -7.992,-0.135 -8.97,0.278 -16.124,2.135l10.898 -0.339c-0.195,1.895 -0.002,2.746 -1.64,3.872 -2.304,1.583 -2.5,0.909 -5.366,0.659l5.346 3.756 -2.487 3.526c-0.142,0.113 -0.485,0.26 -0.706,0.422l9.311 -0.511c0.083,2.318 -0.037,4.757 0.622,6.786 1.326,4.087 1.269,-0.758 2.15,6.019l0.659 -9.866c6.881,2.508 10.539,-0.569 17.013,-2.961 -0.255,-6.234 -0.518,-0.693 1.457,-3.382l10.946 -1.567c0.728,1.883 1.357,3.995 2.496,5.344 1.72,1.353 2.12,-3.224 2.524,-6.354 0.391,-3.031 0.805,-6.239 1.226,-8.656l-10.187 -3.995c1.304,-2.672 -1.317,-4.654 4.452,-2.005 -6.103,-2.889 -2.693,-4.269 -5.452,-7 -2.717,-2.689 1.842,0.562 -3.951,-1.404l-2.42 -0.959c-3.55,-1.612 -2.643,-1.409 -6.634,-2.208 -1.512,2.747 -7.409,7.475 -11.409,6.47z"/>
  <path class="fil7" d="M359.702 61.476c0.285,1.592 0.56,1.664 0.735,2.04 0.082,0.176 0.239,0.44 0.329,0.621l1.531 3.234c0.175,0.546 0.477,2.031 0.57,2.346 5.397,18.317 12.198,16.071 14.699,22.278 1.917,2.203 3.806,3.508 4.63,7.436 0.445,2.122 0.758,4.825 0.995,6.065 0.132,0.688 0.347,1.905 0.53,2.532l1.279 3.117c4.09,-5.195 7.873,-12.223 8.444,-18.135 0.505,-5.217 5.892,-7.21 12.259,-16.526 -0.245,-2.359 -4.049,-13.609 -8.521,-16.774l-2.177 0.403c0.936,3.687 2.875,6.637 2.545,9.624 -0.593,5.365 -2.564,3.789 -4.555,7.258 -3.473,-2.491 -1.708,-0.217 -3.338,-3.939 -0.006,-0.014 -0.273,-2.518 -0.326,-2.868 -6.609,-1.028 -9.063,1.241 -13.331,-0.717l-1.958 3.688c-1.319,1.682 -1.151,1.152 -2.79,1.92 1.275,7.562 -0.053,1.105 1.542,4.171 0.486,0.934 0.983,1.693 1.089,1.527 0.096,-0.151 0.423,0.436 0.589,0.689 -3.312,-1.353 -2.633,-0.686 -4.457,-3.678 -0.049,-0.079 -2.167,-4.644 -2.188,-4.714 -2.087,-6.964 0.183,-0.263 0.136,-4.401 -0.059,-5.259 -1.43,-0.99 -1.201,-1.772 0.673,-2.298 4.797,-2.248 6.309,-6.196 -0.579,8.788 0.353,3.25 2.398,5.215l0.526 -5.925c0.928,1.653 0.486,0.253 3.005,2.235 2.683,-3.873 -0.518,-2.739 9.486,-4.841 -2.242,-3.357 -3.547,-1.567 -4.05,-3.008 -0.124,-0.357 -0.523,-0.218 -0.752,-0.381 3.217,-0.26 3.836,0.285 5.646,0.312 0.13,0.002 0.413,-0.013 0.543,-0.018l3.902 -0.299c-0.592,-4.201 0.706,-2.186 -2.357,-3.991 -7.79,0.8 -12.951,0.751 -14.423,7.991 -0.542,-0.071 -3.051,-0.609 -3.46,-0.699l-7.596 -1.058c-0.244,0.034 -0.565,0.094 -0.768,0.15 -4.706,1.28 -1.176,1.617 -1.176,1.617 -1.208,-4.289 -0.705,-5.22 -1.184,-10.431 -2.265,1.467 -1.53,2.708 -1.286,6.373 0.174,2.62 0.619,5.154 1.044,7.053 -1.521,0.948 2.257,2.931 -2.867,0.476z"/>
  <path class="fil17" d="M156.437 100.936l1.347 2.025c3.358,-0.542 4.785,-1.66 8.208,-1.642 5.858,0.03 3.057,2.344 6.632,1.011 1.511,-3.038 1.091,-1.064 2.506,-2.361 3.077,-2.82 2.316,-2.389 2.545,-7.827 0.16,-3.77 0.865,-7.423 0.414,-11.985 -2.065,0.92 -2.245,1.752 -3.898,1.795 -9.139,0.237 -2.591,0.217 -5.186,-2.947 4.505,-0.685 3.774,0.463 5.851,-1.005 -3.555,-2.778 -5.608,-1.222 -5.877,-1.9 -0.089,-0.224 -0.434,-0.002 -0.62,-0.107l6.237 -1.635c-0.042,-2.382 0.182,-4.933 -0.497,-7.204 -1.586,-5.312 -9.325,-12.102 -17.674,-8.865 -5.728,2.221 0.176,1.191 -7.256,6.501l-1.363 0.95c-3.229,2.67 -1.248,5.645 0.371,9.999l1.167 2.697c2.121,-4.186 4.714,-3.741 9.839,-1.882l-12.593 3.446c-0.031,3.588 -0.193,8.32 0.449,11.762 0.659,3.525 0.97,3.883 3.899,5.956l1.797 1.012c1.094,-3.289 0.856,-6.595 7.811,-9.162 3.725,-1.375 2.982,0.441 7.707,-1.704 8.129,7.3 5.141,1.38 7.721,6.128 -1.613,4.448 -1.165,0.852 -4.121,4.647 -2.715,-1.859 -1.59,-0.48 -3.119,-3.024 -2.476,-4.121 2.04,0.884 -0.209,-1.116 -0.176,-0.157 -5.593,-2.816 -10.169,2.901 -0.154,0.192 -0.722,0.772 -0.866,0.981 -0.971,1.411 -1.446,-1.211 -1.053,2.555z"/>
  <path class="fil11" d="M358.997 282.947l2.522 0.664c-0.8,9.069 -2.074,18.589 -2.779,27.421 -0.814,10.183 1.184,19.286 1.231,29.968l19.826 0c-1.072,-7.42 -1.903,-3.883 -0.443,-11.559 0.15,-0.789 0.722,-11.43 0.736,-13.058 -6.344,-4.503 -9.54,-24.759 -10.144,-36.349 -6.455,0.012 -6.79,0.26 -10.949,2.913z"/>
  <path class="fil10" d="M68.995 30.434c0.963,-5.4 -2.403,1.999 4,-3.434 -0.82,-0.672 -0.758,-0.228 -2.504,-1.073 -2.958,-1.432 -0.734,1.583 -1.491,-0.932 7.858,0 1.178,0.396 3.995,-1.995l0 -23 -50 0c1.363,3.925 2.085,2.649 2.853,2.85 2.432,0.638 0.591,-0.582 1.766,1.584l1.886 4.483c0.815,2.624 1.046,3.643 1.504,6.46 0.818,5.033 0.221,9.402 3.996,11.184 2.049,-1.735 0.772,-0.751 2.08,-3.216 0.524,-0.987 0.465,-0.947 1.049,-1.977 2.197,-3.88 4.044,-7.52 7.455,-9.849 6.641,-4.534 14.826,-1.398 20.334,3.519l-7.82 4.962 0.386 7.408c-2.56,-3.137 -3.132,-3.773 -7.364,-2.876 -1.05,0.222 -8.774,1.873 -10.125,2.46 0.113,0.668 0.861,2.041 0.887,2.133 2.833,9.833 -2.47,-1.113 27.113,1.309z"/>
  <path class="fil8" d="M487.903 209.995l-3.124 -0.039c-0.148,6.756 2.447,5.154 3.451,11.41l-5.773 -2.236 5.869 7.439c3.088,3.995 2.991,-2.854 1.866,4.426 -0.421,2.417 -0.835,5.625 -1.226,8.656 -0.404,3.13 -0.804,7.707 -2.524,6.354 0.223,9.729 -2.573,6.79 -6.246,11.632 13.459,1.45 8.08,-1.579 16.809,-1.637 -0.178,-5.711 -6.605,2.744 -4.14,-9.849 0.935,-4.776 0.892,-9.238 2.14,-14.146 5.242,1.971 6.022,6.536 6.37,13.913 0.207,4.407 -0.715,14.313 1.038,16.506 3.993,-0.358 3.91,-10.663 3.322,-14.456 -0.435,-2.81 -0.805,-5.597 -1.539,-8.359 -1.808,-6.806 -1.375,-6.078 0.539,-8.321l7.265 10.717 0 -37.01c-2.31,3.953 -3.043,-0.212 -7.005,6l-1.586 -1.976c-0.974,-0.973 -1.597,-1.967 -4.412,-2.024l-2.002 -11c0,5.27 -1,6.857 -1,13 -4.155,0.284 -2.298,-0.835 -4,2 -2.124,-0.517 -2.176,-0.236 -4.092,-1z"/>
  <path class="fil14" d="M454.591 219.894c4,1.005 9.897,-3.723 11.409,-6.47 3.991,0.799 3.084,0.596 6.634,2.208l2.42 0.959c5.793,1.966 1.234,-1.285 3.951,1.404 2.759,2.731 -0.651,4.111 5.452,7 -5.769,-2.649 -3.148,-0.667 -4.452,2.005l10.187 3.995c1.125,-7.28 1.222,-0.431 -1.866,-4.426l-5.869 -7.439 5.773 2.236c-1.004,-6.256 -3.599,-4.654 -3.451,-11.41 -5.191,-4.096 -14.107,-3.309 -21.162,-1.484 -0.8,-20.173 3.669,-20.107 1.547,-25.468 -2.919,-7.373 -0.879,-4.908 -1.504,-11.023 -0.596,-5.837 -2.216,2.094 -0.074,-10.541 -7.775,-3.399 2.534,-4.061 -10.226,-4.017 -0.005,0.35 0.015,2.358 0.049,2.842l0.27 1.806c-0.002,0.083 0.007,0.34 -0.004,0.411l-0.336 0.74c-0.051,0.111 -0.511,0.535 -0.739,0.778l1.176 43.004c-0.475,6.794 0.681,7.877 0.815,12.89z"/>
  <path class="fil22" d="M457.966 60.172c-11.374,2.064 -2.226,2.633 -11.379,7.825l-0.26 7.505c-8.349,-1.325 -1.738,1.278 -7.149,5.879l1.524 -16.933 -3.547 1.865c-0.625,0.633 0.191,-0.262 -0.904,1.185 -2.565,3.391 -6.709,4.782 -7.949,5.501l-1.426 9.129c23.968,2.434 20.836,1.048 28.228,12.758 4.23,6.7 7.015,13.695 9.291,15.565 -0.224,-14.225 -3.216,-26.899 2.05,-45.081 0.547,-1.891 1.382,-3.607 1.419,-6.37 -6.369,-4.379 -6.734,-1.486 -7.054,-1.196l-0.961 0.947c-1.624,1.404 -0.251,0.418 -1.883,1.421z"/>
  <path class="fil21" d="M110.795 262.793c2.644,3.296 0.206,2.226 4.128,0.436 -0.003,0.843 -0.214,4.73 -0.218,4.746 -0.385,1.521 -0.395,1.115 -0.784,2.026 -0.095,0.224 -0.287,0.597 -0.372,0.785l-0.825 1.695c6.354,3.088 -0.972,7.968 6.509,12.37 -0.012,0.004 -5.985,0.024 -6.651,5.624 -0.738,6.195 8.584,-1.226 6.906,-2.475l5.786 1.682c3.683,1.512 0.794,0.821 4.054,1.439 3.521,0.667 4.446,1.135 8.483,1.182l-1.387 -10.303 6.04 0.644c-3.12,-15.164 -1.204,-14.627 -7.971,-25.662 4.086,0.101 6.687,0.599 9.661,-0.944l-2.392 0.132c-10.709,0.721 -3.729,-3.072 -16.804,0.744 -15.64,4.565 -7.669,4.742 -14.163,5.879z"/>
  <path class="fil1" d="M300.365 94.27l1.378 -10.777 0.094 -18.443c-3.583,-0.14 -6.085,-0.278 -9.39,0.512 -0.541,0.129 -1.672,0.525 -1.796,0.535 -1.484,0.118 -13.645,-6.123 -16.928,6.691 -3.208,12.518 7.022,20.009 18.193,12.974 -1.658,9.257 -7.957,5.338 -14.916,4.087 -1.929,2.917 -2.094,2.957 -2.712,6.151 3.848,2.425 8.854,3.107 13.709,2.951 6.861,-0.221 7.607,-1.71 12.368,-4.681z"/>
  <path class="fil0" d="M289.995 321.561l-5.995 -0.512c-0.552,1.357 -0.471,15.692 -0.65,19.951l38.046 0 -0.864 -10.402c-1.689,-2.132 -1.666,-6.165 -1.944,-9.598 -5.033,-0.684 -24.853,-1.367 -28.593,0.561z"/>
  <path class="fil19" d="M107.463 93.651c5.306,3.919 4.071,1.577 8.537,7.591 3.94,0.353 6.86,0.783 10.495,2.088 4.219,1.515 6.123,2.364 7.95,5.222 -9.44,-2.581 -8.836,-5.133 -21.474,-5.083 7.214,1.633 16.191,5.142 20.209,11.531l-3.511 3.093c1.771,-0.178 5.024,-0.763 6.436,-0.777 4.073,-0.039 2.21,-0.518 3.738,1.689 3.319,3.717 1.346,1.435 2.408,0.995 -0.564,-4.051 -1.143,-3.05 -2.566,-7.221l1.188 1.087c0.76,0.825 0.917,1.112 1.511,1.763 2.463,2.702 -1.872,0.384 3.028,2.702l-0.14 -10.995 -0.713 -4.852 0.257 -4.381c-0.684,-0.983 -1.7,-2.554 -2.297,-3.545l-1.218 -2.361 -11.592 -3.238c0.166,-0.159 0.446,-0.42 0.607,-0.569 0.096,-0.088 1.48,-1.113 1.482,-1.345l-14.798 1.178c-0.122,-0.188 -0.188,-0.535 -0.21,-0.637l0.101 -2.367 -9.806 5.04c0.435,0.793 1.99,2.9 0.378,3.392z"/>
  <path class="fil23" d="M283.616 315.27c0.861,-0.474 -3.154,-0.102 1.381,-0.204 0.235,-0.005 1.036,0.024 1.345,0.036 1.503,0.062 2.993,0.254 4.607,0.26l26.404 -2.04c0.068,-9.271 -2.279,-16.463 -6.706,-24.09l-0.865 -1.299c-0.968,5.449 -0.232,0.232 -4.492,7.847 -0.367,-0.645 -0.917,-2.543 -4.343,-2.509 -4.094,0.041 -1.124,1.328 -4.898,1.355 -2.811,0.019 -2.891,-0.824 -4.2,-2.433 -0.25,-0.308 -2.076,-3.064 -2.537,-4.052 -1.578,2.394 -1.109,3.901 -2.037,7.228 -0.561,2.008 -1.742,4.583 -2.364,6.262 -1.319,3.561 -2.709,11.047 -1.295,13.639z"/>
  <path class="fil9" d="M512 6.609l0 -6.609 -30.061 0c-2.243,5.739 -2.186,-3.87 -5.682,6.153 -1.617,4.635 -0.865,7.187 -1.705,12.431 -0.968,6.042 -2.596,5.057 -2.121,11.148 0.798,10.212 -3.528,4.595 -0.431,10.077 5.203,-0.025 1.379,0.46 7.907,-9.866 7.059,-11.165 17.594,-22.073 32.093,-23.334z"/>
  <path class="fil10" d="M87.879 135.471c0.355,5.142 1.751,11.199 7.48,9.955 0.913,-6.876 -0.745,-5.973 2.63,-9.6 1.457,-1.566 0.852,1.697 1.537,-1.951 0.194,-0.278 0.554,-0.961 0.661,-0.772 0.003,0.004 4.281,-3.224 0.759,-12.083 -0.673,-1.692 -1.502,-3.298 -2.907,-5.294 -4.935,-7.018 -2.595,-3.871 -2.053,-4.769l-0.888 8.405c-0.369,-0.214 -0.649,-0.876 -0.75,-0.702 -0.098,0.171 -0.45,-0.515 -0.581,-0.696l-6.683 -9.832 6.599 -0.883c-1.619,-4.276 3.293,-0.967 -3.981,-3.499l5.298 2.849 11.995 -5.339c-4.633,-1.251 -1.233,-0.777 -5.056,-2.352 -4.088,-1.682 -1.04,-0.261 -4.869,-0.375 -4.255,-0.126 -6.961,-3.13 -9.847,-5.868 -0.148,-0.14 -0.35,-0.355 -0.495,-0.496 -1.134,-1.098 -0.694,-0.835 -1.984,-1.927 -5.999,-5.083 -10.573,-4.101 -17.739,-2.789 1.149,3.783 -0.167,2.47 2.863,4.889 1.894,1.512 3.195,1.602 6.028,1.076 7.699,-1.428 1.69,-3.579 10.292,-0.676 -3.448,3.677 -2.414,3.652 -7.508,5.666 3.764,2.836 3.286,2.029 3.968,6.138 -3.408,-2.529 -6.148,-6.351 -10.662,-8.66 1.552,2.947 3.228,4.134 5.294,6.806l10.932 12.881c1.738,2.513 2.877,5.369 6.165,7.334 -1.334,2.167 -1.675,4.073 -2.04,7.093 -1.855,0.924 0.173,0.697 -1.693,0.134l-2.931 -1.568 0.166 6.905z"/>
  <path class="fil1" d="M225.14 92.446c0.312,-7.982 7.334,-12.861 15.769,-15.334 1.354,-3.543 0.33,-18.108 -16.021,-8.606l-0.236 -10.313c-3.738,-1.268 -6.801,-0.608 -10.889,-0.462 0.008,7.747 0.233,15.517 0.334,23.278 0.158,12.16 -1.294,12.201 11.043,11.437z"/>
  <path class="fil2" d="M173.446 140.417l0.976 1.385c0.074,0.181 0.281,0.531 0.358,0.75 0.13,0.364 0.479,2.216 0.529,2.549l1.627 -4.18c0.609,3.607 -0.229,1.782 1.745,3.92 1.41,-3.413 3.207,-6.628 5.97,-9.187 1.042,-0.964 2.84,-2.188 4.411,-2.163 3.81,0.061 1.19,0.03 3.607,2.007 5.398,4.413 -3.973,-1.37 1.331,1.125l2.53 -4.522c0.069,-4.192 -1.201,-3.986 0.122,-7.301l2.441 13.322c-0.36,4.536 -1.543,-0.092 -1.279,4.313l3.017 8.224c0.004,0.011 0.447,3.227 0.579,3.777 2.489,-4.017 1.037,-4.22 1.246,-8.275 0.291,-5.623 2.445,-5.55 2.836,-8.221 -3.742,-11.194 0.385,-8.509 -6.71,-18.968 -3.84,-2.67 -7.729,-2.971 -10.853,-4.895 -3.92,-2.416 0.606,-2.684 -8.899,-6.859 -1.358,9.272 3.684,4.652 0.305,15.98 -1.367,4.584 -3.723,14.75 -5.889,17.219z"/>
  <path class="fil1" d="M198.782 118.972c7.095,10.459 2.968,7.774 6.71,18.968 1.994,1.347 3.746,0.245 6.694,-0.229 8.413,-1.355 6.533,-1.453 14.43,-5.986 4.172,-2.395 3.045,-0.957 4.737,-5.189l7.948 1.73c-0.228,-0.216 -0.57,-0.413 -0.767,-0.548 -8.405,-5.753 -7.817,-3.838 -9.416,0.721 -5.835,-9.633 0.977,-16.124 -6.199,-17.582 -2.568,-0.522 0.669,-0.21 -1.816,-0.154 -4.49,0.102 -17.589,7.352 -22.321,8.269z"/>
  <path class="fil7" d="M141.301 92.197l1.218 2.361c0.597,0.991 1.613,2.562 2.297,3.545 2.301,-3.124 -0.171,-1.393 2.157,-0.07 4.376,2.486 -0.415,3.353 4.998,3.759 0.513,0.039 3.412,-0.664 4.466,-0.856 -0.393,-3.766 0.082,-1.144 1.053,-2.555 0.144,-0.209 0.712,-0.789 0.866,-0.981 4.576,-5.717 9.993,-3.058 10.169,-2.901 2.249,2 -2.267,-3.005 0.209,1.116 1.529,2.544 0.404,1.165 3.119,3.024 2.956,-3.795 2.508,-0.199 4.121,-4.647 -2.58,-4.748 0.408,1.172 -7.721,-6.128 -4.725,2.145 -3.982,0.329 -7.707,1.704 -6.955,2.567 -6.717,5.873 -7.811,9.162l-1.797 -1.012c-2.929,-2.073 -3.24,-2.431 -3.899,-5.956 -0.642,-3.442 -0.48,-8.174 -0.449,-11.762l12.593 -3.446c-5.125,-1.859 -7.718,-2.304 -9.839,1.882l-1.167 -2.697c-1.619,-4.354 -3.6,-7.329 -0.371,-9.999l1.363 -0.95c7.432,-5.31 1.528,-4.28 7.256,-6.501 8.349,-3.237 16.088,3.553 17.674,8.865 0.679,2.271 0.455,4.822 0.497,7.204l-6.237 1.635c0.186,0.105 0.531,-0.117 0.62,0.107 0.269,0.678 2.322,-0.878 5.877,1.9 -2.077,1.468 -1.346,0.32 -5.851,1.005 2.595,3.164 -3.953,3.184 5.186,2.947 1.653,-0.043 1.833,-0.875 3.898,-1.795 0.451,4.562 -0.254,8.215 -0.414,11.985 -0.229,5.438 0.532,5.007 -2.545,7.827 -1.415,1.297 -0.995,-0.677 -2.506,2.361 3.336,-1.687 1.859,-0.258 3.932,-1.243 0.841,-0.4 1.973,-1.352 2.594,-2.601 1.001,-2.013 1.402,-9.177 2.627,-9.491 -0.233,-13.795 -0.241,-4.562 -1.85,-13.014 -1.435,-7.537 -2.718,-11.95 -10.541,-17.325 -10.209,-7.016 -23.455,2.607 -25.765,11.088 -0.694,2.545 -0.492,3.433 -0.784,6.262 -0.599,5.799 -0.239,2.214 -1.48,5.478 -1.587,4.171 -0.015,6.331 -0.056,10.713z"/>
  <path class="fil24" d="M489.138 314.995c1.075,5.91 3.11,16.605 8.266,18.847 0.663,0.288 1.227,0.389 2.232,0.764 4.345,1.623 7.706,4.053 12.364,4.638l0 -35.329c-0.152,-0.269 -0.334,-0.606 -0.452,-0.811 -0.117,-0.201 -0.311,-0.549 -0.454,-0.791l-2.645 -4.015c-2.088,-2.821 -0.761,-0.191 -2.449,-3.583 -4.695,4.553 5.144,21.555 0,27.687 -3.775,-3.082 -1.129,-2.664 -3.114,-5.927 -1.632,-2.684 -3.508,-2.289 -5.881,-3.475l1.809 -1.198c0.219,-0.18 0.523,-0.374 0.721,-0.566 3.058,-2.973 0.81,2.485 0.942,-1.492 0.136,-4.095 -1.685,-0.662 -4.567,-0.474 -5.075,0.331 -2.74,-2.936 -5.109,0.73l2.112 2.042c2.36,2.779 0.251,-1.78 2.081,2.953l-5.856 0z"/>
  <path class="fil0" d="M364.16 35.231c-9.825,1.244 -6.029,17.719 -4.458,26.245 5.124,2.455 1.346,0.472 2.867,-0.476 -0.425,-1.899 -0.87,-4.433 -1.044,-7.053 -0.244,-3.665 -0.979,-4.906 1.286,-6.373 1.9,-4.118 3.726,-4.795 9.148,-5.49 5.915,-0.757 5.563,-2.519 13.041,-1.988 2.285,2.619 5.216,7.707 6.418,9.908 3.063,1.805 1.765,-0.21 2.357,3.991l1.23 6.118 2.177 -0.403c-0.148,-5.865 -2.349,-6.474 1.447,-9.937 -1.882,-16.402 -10.877,-20.924 -24.086,-19.664 -4.445,0.424 -4.651,0.786 -7.462,2.903l-2.921 2.219z"/>
  <path class="fil24" d="M409.723 341l9.767 0c2.257,-6.147 -4.302,-32.869 -6.171,-42.157l-1.403 -10.478c-1.879,-6.195 -0.421,-1.941 -2.336,-4.078 -1.938,8.454 -0.817,18.424 -1.614,22.623 -0.917,4.831 -2.573,2.003 -1.355,7.327 0.038,0.162 0.168,0.442 0.21,0.597l0.751 11.145c0.501,3.937 2.197,10.743 2.151,15.021z"/>
  <path class="fil25" d="M289.312 288.141c0.461,0.988 2.287,3.744 2.537,4.052 1.309,1.609 1.389,2.452 4.2,2.433 3.774,-0.027 0.804,-1.314 4.898,-1.355 3.426,-0.034 3.976,1.864 4.343,2.509 4.26,-7.615 3.524,-2.398 4.492,-7.847l-0.313 -6.439 -1.141 -7.095 -14.662 -5.489c-3.163,1.624 -1.243,-0.752 -2.249,3.209 -0.258,1.017 -0.265,4 -0.574,5.685 -0.817,4.466 -1.96,4.758 -1.531,10.337z"/>
  <path class="fil21" d="M395.005 60.113l-1.23 -6.118 -3.902 0.299c-0.13,0.005 -0.413,0.02 -0.543,0.018 -1.81,-0.027 -2.429,-0.572 -5.646,-0.312 0.229,0.163 0.628,0.024 0.752,0.381 0.503,1.441 1.808,-0.349 4.05,3.008 -10.004,2.102 -6.803,0.968 -9.486,4.841 -2.519,-1.982 -2.077,-0.582 -3.005,-2.235l-0.526 5.925c-2.045,-1.965 -2.977,3.573 -2.398,-5.215 -1.512,3.948 -5.636,3.898 -6.309,6.196 -0.229,0.782 1.142,-3.487 1.201,1.772 0.047,4.138 -2.223,-2.563 -0.136,4.401 0.021,0.07 2.139,4.635 2.188,4.714 1.824,2.992 1.145,2.325 4.457,3.678 -0.166,-0.253 -0.493,-0.84 -0.589,-0.689 -0.106,0.166 -0.603,-0.593 -1.089,-1.527 -1.595,-3.066 -0.267,3.391 -1.542,-4.171 1.639,-0.768 1.471,-0.238 2.79,-1.92l1.958 -3.688c4.268,1.958 6.722,-0.311 13.331,0.717 0.053,0.35 0.32,2.854 0.326,2.868 1.63,3.722 -0.135,1.448 3.338,3.939 1.991,-3.469 3.962,-1.893 4.555,-7.258 0.33,-2.987 -1.609,-5.937 -2.545,-9.624z"/>
  <path class="fil7" d="M320.532 330.598l0.864 10.402 15.649 0c-0.863,-19.41 -3.002,-15.816 -4.04,-28.005 -1.421,-0.217 -9.813,3.118 -12.639,6.017l0.166 11.586z"/>
  <path class="fil26" d="M286.867 196.395c-0.367,6.878 -0.343,13.75 0.52,20.14 0.566,4.19 -1.163,10.489 0.341,13.526 1.063,2.146 -2.185,2.211 2.716,2.147l7.61 -21.14c1.774,-5.298 1.074,-5 3.29,-6.571 0.468,-6.184 -0.86,-4.807 -1.071,-11.018l-13.406 2.916z"/>
  <path class="fil12" d="M241.891 136.514l9.165 13.502c1.954,3.149 7.505,8.939 7.171,13.321 2.702,-4.535 3.616,-10.811 2.968,-17.071 -0.883,-1.12 -1.102,-14.323 -1.323,-17.65 -6.676,0.575 -3.82,4.081 -15.872,2.864 -0.181,0.259 -0.314,0.637 -0.41,0.853 -0.094,0.209 -0.281,0.581 -0.388,0.828l-1.311 3.353z"/>
  <path class="fil9" d="M512 38.843l0 -17.612 -4.935 -1.693c-0.803,1.799 -0.548,2.204 0.826,4.285 -4.802,0.138 -4.104,0.066 -7.503,2.1l-4.345 2.662c-4.544,3.587 1.716,1.197 -6.732,7.638 -3.857,2.942 -0.982,2.523 -4.346,3.852 -4.136,1.635 -2.537,-3.036 -3.35,5.325 10.386,-2.435 18.137,-6.047 30.385,-6.557z"/>
  <path class="fil17" d="M145.272 107.336c1.718,2.053 5.283,3.902 8.491,5.982 8.373,5.431 3.08,2.168 7.058,8.977 1.247,2.134 10.913,7.39 12.625,18.122 2.166,-2.469 4.522,-12.635 5.889,-17.219 3.379,-11.328 -1.663,-6.708 -0.305,-15.98 -0.807,0.42 -8.936,18.635 -28.098,2.959l-5.262 -6.043c-0.575,-0.826 -0.568,-0.922 -1.111,-1.65l0.713 4.852z"/>
  <path class="fil21" d="M362.811 47.574c0.479,5.211 -0.024,6.142 1.184,10.431 0,0 -3.53,-0.337 1.176,-1.617 0.203,-0.056 0.524,-0.116 0.768,-0.15l7.596 1.058c0.409,0.09 2.918,0.628 3.46,0.699 1.472,-7.24 6.633,-7.191 14.423,-7.991 -1.202,-2.201 -4.133,-7.289 -6.418,-9.908 -7.478,-0.531 -7.126,1.231 -13.041,1.988 -5.422,0.695 -7.248,1.372 -9.148,5.49z"/>
  <path class="fil1" d="M257.588 83.584c1.632,2.298 3.17,5.071 3.294,8.25l9.885 -0.103c1.497,-5.43 0.301,-19.561 0.372,-26.46l-11.328 0.332c0.405,11.225 1.907,13.082 -2.223,17.981z"/>
  <path class="fil6" d="M473.123 127.396l4.482 8.704c5.8,0.266 8.337,-1.631 12.645,-2.089l10.616 -1.988c0.066,-0.202 0.409,0.037 0.6,-0.023 -2.288,-7.181 -8.209,-8.688 -13.487,-11.149 -8.871,-4.137 -6.081,6.967 -14.856,6.545z"/>
  <path class="fil10" d="M110.971 130.428c3.782,-1.927 8.18,-5.109 11.773,-7.903 -6.999,-4.876 -1.721,-2.048 -8.14,-8.18 -1.903,-1.818 -0.068,0.006 -1.41,-1.498 -5.411,-6.061 -7.097,-6.95 -13.05,-7.102 2.034,3.444 0.356,0.467 2.179,2.881 2.9,3.842 3.93,5.729 4.771,10.374 -1.746,1.118 -3.225,-0.901 -2.067,3.641 0.771,3.023 1.793,4.912 2.308,8.336 1.107,-1.89 0.547,-2.985 2.825,-4.82 -0.092,4.14 -0.381,1.689 0.811,4.271z"/>
  <path class="fil27" d="M159.78 318.426c11.025,0.805 11.229,1.56 10.267,-9.457 -0.674,-7.724 -0.737,-10.256 -6.047,-14.26 -0.563,0.864 0.03,-0.988 -1.035,2.125 -0.374,1.092 -0.368,1.15 -0.636,2.399l-2.549 19.193z"/>
  <path class="fil1" d="M246.589 77.172l7.587 2.759c0.11,-0.211 0.202,-0.52 0.24,-0.671l0.541 -6.204c-0.028,-2.367 -0.073,-4.596 -0.028,-7.417l-11.483 -0.038 0.2 10.742 2.943 0.829z"/>
  <path class="fil26" d="M79.341 260c2.47,5.042 -0.004,0.833 3.521,2 2.932,7.222 -0.034,7.756 7.138,9.023 5.553,-6.229 2.627,-5.036 0.451,-11.023 2.117,-1.954 2.07,-0.617 3.287,-6.365 -9.779,1.152 -6.573,3.3 -10.902,5.274 -1.48,0.676 -1.453,0.02 -3.495,1.091z"/>
 </g>
</svg>
